<?xml version="1.0" encoding="UTF-8" standalone="no"?>
<svg
  xmlns="http://www.w3.org/2000/svg"
  version="1.1"
  viewBox="0 0 850 1100"
  preserveAspectRatio="xMinYMin meet"
>
  <defs>
    <clipPath
      id="clipPath873"
      clipPathUnits="userSpaceOnUse">
      <path
        id="path875"
        fill="#5012FF"
        d="m -715.20795,1000521.1 c 113.03709,-72.4 267.23073,-44.3 375.64432,32.4 35.37379,25.4 67.79558,54.6 96.67754,87.2 16.84654,18.7 32.7942,38.4 48.02995,58.7 3.75479,5 7.49,10 11.15063,15.1 2.50587,3.4 4.99045,6.9 7.45376,10.4 30.87186,43.6 59.10724,89.5 86.740983,135 68.984613,113.5 139.762548,230.4 245.960917,310.1 21.87944,16.4 52.49991,31.2 75.29583,15.5 19.78187,-13.6 20.95596,-42.3 16.76481,-65.7 -15.5886,-86.9 -74.63799,-158.9 -137.54439,-220.4 -62.905606,-61.5 -132.682408,-117.9 -179.889003,-192.1 -47.207297,-74.3 -68.013677,-173.5 -24.997234,-251.3 37.072591,-67.1 115.589871,-104.7 191.822723,-106.4 76.225244,-1.8 149.920494,27.9 213.920724,68.5 63.99403,40.7 120.08037,92.4 178.68222,140.4 35.32545,29 84.78554,57.8 123.93817,33.3 33.07123,-20.8 36.21374,-70.6 17.04028,-104.1 -19.17447,-33.6 -53.84841,-54.7 -87.09694,-74.3 -103.2253,-61.1 -206.45366,-122.1 -309.68309,-183.2 -31.67157,-18.7 -64.03016,-38 -87.23609,-66.6 -23.21312,-28.5 -35.81427,-68.6 -22.43304,-103.2 13.20135,-34.1 49.2143,-55.8 85.44509,-60.3 36.20767,-4.52 72.55566,5.5 106.21816,19.1 126.1479,50.9 420.69317,383.9 499.56665,440.8 50.68821,36.6 103.84289,82.9 108.28087,145.5 5.52993,78 -72.80731,142.7 -150.7666,150.2 -77.94955,7.6 -153.01938,-26.2 -222.1716,-62 -69.15221,-35.8 -139.69258,-75.3 -217.72359,-80.3 -78.02902,-4.9 -166.12722,36.8 -185.52552,112.8 -16.87006,66.2 23.25725,134.4 76.07024,176.7 41.33921,33.2 90.05064,55.3 137.063,80.1 13.05481,6.8 25.96891,13.9 38.5573,21.5 32.22761,19.5 62.29834,42.3 89.72664,68.1 28.79383,27 54.57305,57 76.89385,89.6 17.81197,26 33.29708,53.5 46.27682,82.2 1.97787,4.4 3.89593,8.8 5.75428,13.3 1.76069,4.3 3.4638,8.7 5.07532,13.1 21.04341,57.2 28.75228,121.3 0.39317,174.7 -28.28648,53.2 -88.57854,84.8 -148.46555,89.1 -34.63404,2.1 -69.26658,-2.5 -102.02441,-13.5 -24.09525,-7.8 -47.39082,-17.9 -69.59311,-30 -102.94697,-55.6 -183.93386,-143.8 -257.77761,-234.5 -73.826363,-90.6 -143.227695,-186 -231.23028,-263 -87.99874,-76.9 -198.71963,-135.1 -316.31294,-134.2 -117.58712,0.9 -239.63231,72.5 -274.34216,185.2 -47.69601,-83.9 -79.49401,-179.5 -74.01737,-276.3 5.47564,-96.9 52.29946,-194.6 134.38628,-247.2 z" />
      <path
        d="m -715.20795,522.08457 c 113.03709,-72.40094 267.23073,-44.27002 375.64432,32.44221 35.37379,25.37673 67.79558,54.60972 96.67754,87.16793 16.84654,18.71628 32.7942,38.36462 48.02995,58.69 3.75479,4.98734 7.49,10.02369 11.15063,15.11003 2.50587,3.43824 4.99045,6.90147 7.45376,10.38771 30.87186,43.61897 59.10724,89.5071 86.740983,134.9782 68.984613,113.51073 139.762548,230.40365 245.960917,310.09915 21.87944,16.4111 52.49991,31.1921 75.29583,15.521 19.78187,-13.6109 20.95596,-42.2328 16.76481,-65.6944 C 232.92219,1033.8804 173.8728,961.86253 110.9664,900.38434 48.060794,838.90615 -21.716008,782.54231 -68.922603,708.25525 -116.1299,633.96819 -136.93628,534.79243 -93.919837,456.98913 -56.847246,389.94256 21.670034,352.334 97.902886,350.58188 c 76.225244,-1.73412 149.920494,27.8869 213.920724,68.56167 63.99403,40.69178 120.08037,92.32329 178.68222,140.39857 35.32545,29.00397 84.78554,57.78293 123.93817,33.22626 33.07123,-20.75241 36.21374,-70.57181 17.04028,-104.11609 C 612.30981,455.109 577.63587,434.02857 544.38734,414.36923 441.16204,353.31007 337.93368,292.25691 234.70425,231.20875 203.03268,212.49548 170.67409,193.18416 147.46816,164.64922 124.25504,136.13027 111.65389,96.048343 125.03512,61.417084 138.23647,27.289059 174.24942,5.6181227 210.48021,1.0955646 c 36.20767,-4.5121374 72.55566,5.5125156 106.21816,19.0913104 126.1479,50.898568 420.69317,383.884655 499.56665,440.815535 50.68821,36.56449 103.84289,82.85464 108.28087,145.48291 5.52993,77.96831 -72.80731,142.67172 -150.7666,150.23523 -77.94955,7.58652 -153.01938,-26.26879 -222.1716,-62.06123 -69.15221,-35.79244 -139.69258,-75.25612 -217.72359,-80.22446 -78.02902,-4.96734 -166.12722,36.7725 -185.52552,112.78968 -16.87006,66.14451 23.25725,134.39916 76.07024,176.72204 41.33921,33.13726 90.05064,55.20376 137.063,80.01845 13.05481,6.86947 25.96891,13.97195 38.5573,21.56347 32.22761,19.4813 62.29834,42.2929 89.72664,68.0546 28.79383,27.0019 54.57305,57.0539 76.89385,89.6261 17.81197,25.9618 33.29708,53.4537 46.27682,82.1756 1.97787,4.3803 3.89593,8.8306 5.75428,13.3409 1.76069,4.3103 3.4638,8.6706 5.07532,13.0809 21.04341,57.1939 28.75228,121.2883 0.39317,174.6719 -28.28648,53.2437 -88.57854,84.7758 -148.46555,89.1461 -34.63404,2.0602 -69.26658,-2.5202 -102.02441,-13.5009 -24.09525,-7.8605 -47.39082,-17.9212 -69.59311,-30.0621 C 201.13916,1436.4579 120.15227,1348.2919 46.30852,1257.6457 -27.517843,1167.0095 -96.919175,1071.573 -184.92176,994.63776 -272.9205,917.68152 -383.64139,859.50055 -501.2347,860.38361 c -117.58712,0.86706 -239.63231,72.50594 -274.34216,185.23759 -47.69601,-83.87268 -79.49401,-179.4832 -74.01737,-276.34779 5.47564,-96.8646 52.29946,-194.60126 134.38628,-247.18884 z M -677.12004,156.1535 V 1626.825 H 830.59419 V 156.1535 Z"
        style="fill-rule:evenodd"
        id="lpe_path-effect877" />
    </clipPath>
  </defs>
  <g transform="translate(0, -175)">
    <path
      d="M 829.59419,891.48926 A 752.85712,734.33575 0 0 1 76.737076,1625.825 752.85712,734.33575 0 0 1 -676.12004,891.48926 752.85712,734.33575 0 0 1 76.737076,157.1535 752.85712,734.33575 0 0 1 829.59419,891.48926 Z"
      clip-path="url(#clipPath873)"
      style="fill:#fdba36" />
  </g>
</svg>
