<svg
  xmlns="http://www.w3.org/2000/svg"
  version="1.1"
  viewBox="0 0 1156 1300"
  preserveAspectRatio="xMinYMin meet"
  fill="none"
>
<!--
<svg viewBox="0 0 1156 1900" preserveAspectRatio="xMinYMin meet" fill="none" xmlns="http://www.w3.org/2000/svg">
<mask id="mask0_844_399" style="mask-type:alpha" maskUnits="userSpaceOnUse" x="-561" y="-275" width="1717" height="1488">
-->
<mask id="mask0_844_399" style="mask-type:alpha" maskUnits="userSpaceOnUse" x="-561" y="-275" width="1800" height="2000">
<path d="M-433.279 230.734C-324.631 160.601 -174.989 187.851 -69.1335 262.161C-34.59 286.743 -2.86176 315.061 25.4763 346.599C42.002 364.73 57.668 383.763 72.6528 403.452C76.3447 408.282 80.0188 413.161 83.622 418.088C86.0875 421.419 88.5325 424.773 90.957 428.151C121.347 470.404 149.209 514.855 176.484 558.902C244.573 668.858 314.437 782.087 418.182 859.286C439.556 875.187 469.377 889.507 491.275 874.323C510.278 861.137 511.092 833.411 506.767 810.689C490.689 726.504 432.691 656.741 371.076 597.188C309.463 537.635 241.253 483.036 194.697 411.076C148.141 339.115 126.871 243.045 167.649 167.678C202.793 102.731 278.405 66.3002 352.21 64.6035C426.009 62.9228 497.711 91.617 560.15 131.018C622.582 170.435 677.481 220.45 734.775 267.019C769.313 295.115 817.536 322.993 855.175 299.205C886.967 279.102 889.447 230.843 870.499 198.35C851.552 165.857 817.734 145.436 785.314 126.393C684.658 67.2459 584.001 8.10455 483.341 -51.0314C452.459 -69.1589 420.904 -87.8658 398.109 -115.507C375.306 -143.133 362.65 -181.96 375.217 -215.506C387.616 -248.566 422.246 -269.558 457.282 -273.939C492.294 -278.31 527.608 -268.599 560.361 -255.445C683.099 -206.141 972.106 116.418 1049.13 171.565C1098.63 206.985 1150.63 251.825 1155.64 312.493C1161.87 388.019 1086.74 450.697 1011.33 458.023C935.928 465.372 862.847 432.577 795.474 397.906C728.102 363.234 659.344 325.006 583.721 320.194C508.1 315.381 423.256 355.815 405.33 429.451C389.741 493.524 429.372 559.641 480.995 600.639C521.403 632.738 568.826 654.114 614.633 678.151C627.354 684.805 639.941 691.686 652.217 699.042C683.647 717.911 713.026 740.003 739.879 764.961C768.069 791.121 793.373 820.228 815.357 851.785C832.9 876.929 848.207 903.563 861.101 931.381C863.066 935.63 864.974 939.938 866.825 944.305C868.578 948.481 870.276 952.711 871.887 956.982C892.912 1012.38 901.103 1074.46 874.243 1126.18C847.451 1177.76 789.42 1208.3 731.474 1212.53C697.957 1214.53 664.367 1210.09 632.519 1199.46C609.097 1191.85 586.423 1182.1 564.785 1170.34C464.461 1116.48 385.035 1031.07 312.499 943.262C239.98 855.463 171.692 763.019 85.5986 688.489C-0.489746 613.943 -108.372 557.584 -222.241 558.44C-336.104 559.28 -453.484 628.675 -485.823 737.874C-532.961 656.63 -564.836 564.014 -560.628 470.183C-556.419 376.352 -512.179 281.675 -433.279 230.734Z" fill="#EA2333"/>
</mask>
<g mask="url(#mask0_844_399)">
<rect width="100%" height="100%" fill="#5012FF" />
<circle r="23" transform="matrix(1 0 0 -1 465.5 994.5)" stroke="#F86624" stroke-width="5"/>
<circle r="23" transform="matrix(1 0 0 -1 525.5 994.5)" stroke="#F86624" stroke-width="5"/>
<circle r="23" transform="matrix(1 0 0 -1 585.5 994.5)" stroke="#F86624" stroke-width="5"/>
<line x1="313" y1="994.5" x2="444" y2="994.5" stroke="#F86624" stroke-width="5"/>
<circle r="23" transform="matrix(0.00897018 0.99996 0.99996 -0.00897018 259.728 217.722)" stroke="#F86624" stroke-width="5"/>
<line x1="259" y1="60" x2="259" y2="193" stroke="#F86624" stroke-width="5"/>
<line x1="563.709" y1="743.176" x2="658.709" y2="832.176" stroke="#F86624" stroke-width="5"/>
<circle r="23" transform="matrix(0.00897018 0.99996 0.99996 -0.00897018 310.728 277.722)" stroke="#F86624" stroke-width="5"/>
<line x1="310.5" y1="61" x2="310.5" y2="253" stroke="#F86624" stroke-width="5"/>
<circle r="23" transform="matrix(1 0 0 -1 736.5 1019.5)" stroke="#F86624" stroke-width="5"/>
<circle r="23" transform="matrix(1 0 0 -1 1016.5 388.5)" stroke="#F86624" stroke-width="5"/>
<circle r="23" transform="matrix(1 0 0 -1 1016.5 448.5)" stroke="#F86624" stroke-width="5"/>
<circle r="23" transform="matrix(1 0 0 -1 1016.5 328.5)" stroke="#F86624" stroke-width="5"/>
<circle r="23" transform="matrix(1 0 0 -1 1016.5 268.5)" fill="#F86624" stroke="#F86624" stroke-width="5"/>
<circle r="23" transform="matrix(1 0 0 -1 1076.5 328.5)" fill="#F86624" stroke="#F86624" stroke-width="5"/>
<circle r="23" transform="matrix(1 0 0 -1 1076.5 388.5)" fill="#F86624" stroke="#F86624" stroke-width="5"/>
<circle r="23" transform="matrix(1 0 0 -1 1076.5 448.5)" fill="#F86624" stroke="#F86624" stroke-width="5"/>
<path d="M5 921H639L723.5 1000.5" stroke="#F86624" stroke-width="5"/>
<line x1="0" y1="506.5" x2="30" y2="536.5" stroke="#F86624" stroke-width="5"/>
<circle r="23" transform="matrix(1 0 0 -1 49.5 551.5)" stroke="#F86624" stroke-width="5"/>
<circle r="23" transform="matrix(1 0 0 -1 565.5 744.5)" fill="#F86624" stroke="#F86624" stroke-width="5"/>
<circle r="23" transform="matrix(1 0 0 -1 673.5 849.5)" stroke="#F86624" stroke-width="5"/>
</g>
</svg>
