<?xml version="1.0" standalone="no"?>
<!DOCTYPE svg PUBLIC "-//W3C//DTD SVG 20010904//EN"
 "http://www.w3.org/TR/2001/REC-SVG-20010904/DTD/svg10.dtd">
<svg version="1.0" xmlns="http://www.w3.org/2000/svg"
 width="646.000000pt" height="646.000000pt" viewBox="0 0 646.000000 646.000000"
 preserveAspectRatio="xMidYMid meet">
<metadata>
Created by potrace 1.14, written by Peter Selinger 2001-2017
</metadata>
<g transform="translate(0.000000,646.000000) scale(0.100000,-0.100000)"
fill="#000000" stroke="none">
<path d="M3524 6435 c23 -58 71 -259 81 -335 13 -98 15 -119 16 -220 0 -103
-1 -123 -22 -245 -15 -90 -77 -268 -130 -375 -86 -176 -256 -440 -403 -627
-23 -28 -51 -64 -63 -80 -12 -15 -58 -73 -103 -128 -45 -55 -134 -165 -199
-245 -481 -594 -736 -1034 -870 -1495 -11 -38 -22 -81 -25 -95 -3 -14 -12 -59
-20 -101 -8 -42 -19 -105 -23 -140 -10 -80 -10 -342 0 -431 55 -518 367 -1049
890 -1512 146 -129 437 -357 437 -342 0 3 -18 47 -41 98 -121 274 -189 483
-234 713 -21 109 -28 393 -12 505 54 381 246 773 665 1363 253 355 393 594
497 847 64 157 136 392 151 495 3 17 9 50 14 75 23 117 32 406 17 570 -16 187
-51 367 -110 560 -42 140 -47 187 -33 310 4 36 9 85 12 110 2 25 6 61 9 80 16
124 18 232 1 130 -21 -130 -78 -361 -84 -340 -32 111 -222 517 -342 735 -71
128 -90 159 -76 120z"/>
<path d="M2715 4622 c-455 -340 -810 -667 -1055 -971 -19 -24 -40 -48 -45 -55
-6 -6 -40 -51 -76 -101 -240 -331 -379 -650 -422 -969 -13 -94 -15 -352 -3
-406 9 -39 15 -72 21 -105 2 -16 13 -61 24 -100 88 -323 289 -642 605 -961
145 -147 356 -337 365 -328 3 3 1 8 -5 12 -13 9 -127 183 -190 292 -64 109
-135 247 -169 330 -15 36 -33 79 -40 95 -46 102 -125 381 -140 495 -3 25 -8
52 -10 60 -26 102 -26 428 0 605 3 22 8 54 11 72 13 98 82 328 142 478 55 139
230 470 284 540 5 6 34 48 65 95 108 163 255 354 523 680 74 91 151 185 170
210 19 25 37 47 40 50 10 8 82 110 78 110 -1 0 -80 -58 -173 -128z"/>
<path d="M5181 4670 c-83 -20 -157 -108 -168 -199 -24 -207 226 -344 382 -210
92 81 107 229 33 330 -49 66 -156 101 -247 79z m149 -55 c34 -17 73 -67 87
-110 37 -114 -50 -255 -159 -255 -83 0 -150 45 -182 120 -17 42 -14 126 7 167
46 88 159 124 247 78z"/>
<path d="M5164 4556 c-3 -7 -3 -64 -2 -127 3 -106 4 -114 23 -114 17 0 20 7
20 50 0 53 -1 52 62 46 6 0 18 -22 25 -48 11 -38 18 -48 36 -49 12 -1 22 1 22
5 0 21 -24 89 -37 103 -13 15 -12 18 6 28 15 7 21 20 21 43 0 37 -7 50 -35 64
-28 15 -135 14 -141 -1z m125 -48 c6 -16 5 -27 -3 -36 -15 -15 -76 -27 -77
-15 -8 79 -11 73 32 73 32 0 41 -4 48 -22z"/>
<path d="M4379 4519 c-2 -256 -24 -492 -65 -709 -2 -14 -7 -40 -9 -57 -10 -70
-76 -306 -116 -414 -105 -288 -238 -516 -462 -797 -62 -77 -125 -155 -142
-174 -308 -345 -481 -698 -532 -1083 -15 -114 -7 -481 11 -536 3 -7 7 -32 10
-54 16 -128 119 -458 195 -629 l31 -68 122 7 c68 4 137 8 153 10 86 9 152 17
165 20 8 2 35 7 60 10 25 3 61 10 80 15 19 5 48 11 63 14 91 16 277 79 408
139 399 183 701 526 851 967 30 88 62 209 73 270 3 19 10 53 15 75 5 22 12 67
15 100 4 33 9 69 12 80 2 11 6 79 9 150 l6 130 -62 -109 c-161 -287 -310 -473
-483 -604 -109 -83 -112 -83 -81 -15 135 304 216 584 260 898 3 28 8 58 10 67
24 133 23 635 -1 793 -2 17 -7 48 -9 70 -7 59 -26 174 -36 220 -5 22 -11 54
-15 72 -9 54 -62 254 -89 333 -97 295 -207 535 -354 775 -96 156 -92 155 -93
34z"/>
</g>
</svg>
