<svg xmlns="http://www.w3.org/2000/svg" viewBox="0 0 158 33" xml:space="preserve" fill-rule="evenodd" clip-rule="evenodd" stroke-linejoin="round" stroke-miterlimit="2" role="presentation">
  <g fill="#00beda" fill-rule="nonzero">
    <path d="M0 31.43.24 8.92c.022-1.499 1.271-2.717 2.77-2.7l14.31.15-1.24 4.77-10.15-.12v4.95l8.87.11v4.66l-8.87-.1-.07 6.09 12 .13-1 4.61L0 31.43ZM26.86 26.92c.825.052 1.651-.063 2.43-.34.488-.238.773-.761.71-1.3-.041-.575-.395-1.083-.92-1.32-.899-.505-1.839-.934-2.81-1.28-.909-.331-1.8-.708-2.67-1.13-.736-.363-1.411-.838-2-1.41-.567-.55-1.01-1.215-1.3-1.95-.332-.871-.488-1.799-.46-2.73-.08-1.914.784-3.751 2.31-4.91 1.845-1.3 4.077-1.938 6.33-1.81 1.295-.001 2.587.12 3.86.36 1.002.169 1.986.43 2.94.78l-1.09 4.86c-.778-.263-1.569-.486-2.37-.67-.946-.202-1.912-.299-2.88-.29-2 0-2.94.55-2.94 1.64-.002.23.042.458.13.67.116.229.288.425.5.57.319.22.653.418 1 .59.43.21 1 .44 1.66.7 1.171.411 2.307.912 3.4 1.5.79.412 1.507.953 2.12 1.6.499.545.872 1.194 1.09 1.9.223.79.327 1.609.31 2.43.109 1.961-.823 3.84-2.45 4.94-2.113 1.247-4.552 1.832-7 1.68-2.598.06-5.182-.399-7.6-1.35l1.05-5.07c1.062.418 2.156.752 3.27 1 1.09.239 2.204.36 3.32.36M44.66 17.26c.61-.67 1.25-1.36 1.9-2.09.65-.73 1.3-1.44 1.91-2.15.61-.71 1.2-1.38 1.74-2 .54-.62 1-1.2 1.4-1.67h7.47c-1.48 1.7-2.93 3.327-4.35 4.88-1.42 1.553-2.97 3.143-4.65 4.77.922.852 1.79 1.76 2.6 2.72.89 1.05 1.76 2.14 2.6 3.26.84 1.12 1.6 2.24 2.3 3.36.7 1.12 1.29 2.15 1.77 3.07h-7.18c-.45-.73-1-1.54-1.53-2.42-.53-.88-1.18-1.77-1.83-2.65-.65-.88-1.32-1.73-2-2.54-.643-.749-1.349-1.442-2.11-2.07v9.68h-6.26V1.82L44.7.04l-.04 17.22Z"></path>
    <path d="M80.08 20.33c.022 1.618-.231 3.227-.75 4.76-.464 1.373-1.21 2.633-2.19 3.7a9.83314 9.83314 0 0 1-3.42 2.37c-1.42.572-2.939.858-4.47.84-1.518.018-3.024-.268-4.43-.84-1.294-.541-2.459-1.349-3.42-2.37-.982-1.073-1.74-2.331-2.23-3.7-.54-1.528-.811-3.139-.8-4.76-.019-1.62.259-3.23.82-4.75.509-1.357 1.284-2.598 2.28-3.65.972-1.012 2.144-1.812 3.44-2.35 2.801-1.12 5.929-1.12 8.73 0 1.29.538 2.455 1.338 3.42 2.35.979 1.054 1.734 2.296 2.22 3.65.55 1.522.821 3.131.8 4.75m-6.38 0c.09-1.601-.311-3.193-1.15-4.56-.739-1.084-1.989-1.713-3.3-1.66-1.316-.048-2.569.579-3.32 1.66-.851 1.363-1.26 2.956-1.17 4.56-.088 1.617.32 3.222 1.17 4.6.735 1.104 1.995 1.749 3.32 1.7 1.321.054 2.577-.593 3.3-1.7a8.0061 8.0061 0 0 0 1.15-4.6M95.44 14.76c-1.58 0-2.37.56-2.37 1.66-.041.476.172.941.56 1.22.782.401 1.612.7 2.47.89.98.219 1.897.66 2.68 1.29.578.627.862 1.471.78 2.32.089 1.12-.33 2.222-1.14 3-.877.707-1.986 1.063-3.11 1-1.176-.013-2.348-.137-3.5-.37l-.67-.13.2-1.66c1.269.188 2.548.302 3.83.34 1.54 0 2.3-.68 2.31-2 .032-.455-.163-.897-.52-1.18-.735-.399-1.528-.679-2.35-.83-.99-.199-1.919-.631-2.71-1.26-.654-.671-.979-1.597-.89-2.53-.067-.998.355-1.968 1.13-2.6.905-.641 2.003-.952 3.11-.88 1.134.009 2.265.12 3.38.33l.65.11-.16 1.68c-1.74-.2-3-.3-3.69-.3M100.55 16.6h2l2 7.57h.5l2-7.57h2l-3.54 13.3h-2l1.11-4h-1.6l-2.47-9.3ZM116.87 18.52c-1.053-.16-2.115-.261-3.18-.3-.469-.04-.94.039-1.37.23-.251.159-.397.443-.38.74-.021.298.147.579.42.7.648.231 1.318.392 2 .48.795.078 1.555.368 2.2.84.5.559.737 1.306.65 2.05.07.832-.284 1.645-.94 2.16-.818.511-1.778.749-2.74.68-.961-.018-1.918-.122-2.86-.31l-.58-.09.08-1.7c1.062.17 2.135.27 3.21.3.479.036.96-.046 1.4-.24.287-.158.453-.474.42-.8.035-.313-.124-.618-.4-.77-.615-.233-1.257-.387-1.91-.46-.792-.089-1.553-.363-2.22-.8-.537-.518-.8-1.259-.71-2-.048-.835.329-1.641 1-2.14.738-.493 1.614-.738 2.5-.7.98.02 1.957.12 2.92.3l.57.11-.08 1.72ZM124.14 18.33h-2.57v4.09c-.029.509.029 1.02.17 1.51.11.25.4.37.86.37l1.52-.05.09 1.61c-.624.14-1.26.22-1.9.24-.791.096-1.585-.169-2.16-.72-.477-.826-.683-1.781-.59-2.73v-4.32h-1.18V16.6h1.19v-2.7h2v2.7h2.57v1.73ZM131.3 20.55c.063-.674-.091-1.35-.44-1.93-.852-.756-2.148-.756-3 0-.375.559-.551 1.229-.5 1.9l3.94.03Zm1.11 3.68.52-.06v1.51c-1.237.26-2.496.401-3.76.42-1.122.122-2.237-.298-3-1.13-.69-1.074-1.007-2.347-.9-3.62 0-3.3 1.333-4.95 4-4.95s3.97 1.42 3.91 4.26l-.13 1.45h-5.77c-.038.605.139 1.203.5 1.69.501.418 1.152.613 1.8.54.88 0 1.79 0 2.72-.11M137.26 25.9h-2v-9.3h2v.58a4.8895 4.8895 0 0 1 2.42-.78c.885-.08 1.758.257 2.36.91 1.03-.579 2.189-.891 3.37-.91.906-.096 1.799.282 2.36 1 .541 1.079.78 2.286.69 3.49v5h-2v-4.93c.022-.732-.108-1.46-.38-2.14-.248-.456-.756-.712-1.27-.64-.618.014-1.229.143-1.8.38l-.32.12c.149.784.2 1.584.15 2.38v4.82h-2v-4.76a5.8837 5.8837 0 0 0-.3-2.28c-.263-.457-.778-.71-1.3-.64-.597 0-1.188.129-1.73.38l-.28.11.03 7.21ZM157.27 18.52c-1.054-.159-2.115-.26-3.18-.3-.469-.04-.94.039-1.37.23-.251.159-.397.443-.38.74-.025.299.145.581.42.7.647.233 1.318.394 2 .48.794.082 1.553.371 2.2.84.496.56.733 1.306.65 2.05.07.832-.284 1.645-.94 2.16-.818.511-1.778.749-2.74.68-.956-.009-1.91-.102-2.85-.28l-.58-.1.08-1.69c1.063.165 2.135.265 3.21.3.482.035.966-.048 1.41-.24.281-.163.442-.477.41-.8.035-.313-.124-.618-.4-.77-.616-.231-1.257-.389-1.91-.47-.791-.08-1.553-.347-2.22-.78-.545-.513-.81-1.258-.71-2-.052-.833.326-1.638 1-2.13.735-.499 1.612-.748 2.5-.71.98.02 1.957.12 2.92.3l.58.11-.1 1.68Z"></path>
  </g>
</svg>