<svg xmlns="http://www.w3.org/2000/svg" viewBox="0 -10 445 85">
  <defs>
    <style>
      path {
        fill:none;
      }
      path.fill {
        fill:#000;
        fill:#c51a1b;
      }
      path.stroke {
        stroke: black;
        stroke-width: 3;
        fill: none;
      }
      #fin {
        fill:#c51a1b;
      }
      path:visi
      @media screen and (prefers-reduced-motion: reduce) {
        .animate { animation: none !important; }
      }
    </style>
  </defs>
  <rect x="2.5" y="11" width="437.8" height="52" fill="lightgray" fill-opacity="0.2" />
  <path class="stroke" d="M4,13v48m0,-26h32m0,-22v48M57.5,13v46.5h13.5M83.7,14.1h32.1l-32.7,46.3"/>
  <path class="stroke" d="M149.7,61v-46.7h17.65m-16.5,20.35h16.1M185.7,13v48M206.9,61v-45l40.5,42.7v-45.7"/>
  <path class="stroke" d="M268.4,13v46.5h13.6M292,61.5l18.7,-46l18.7,46m-30,-17.9h22M345.5,61v-45l40.5,42.7v-45.7M407,61v-46.7h8.8a22.6 22.6 0 0 1 0 45.2h-8"/>

  <path class="fill" d="M34.66,33.25V12.81h3.07V61H34.66V36.12H5.41V61H2.35V12.81H5.41V33.25M58.81,58.09H71.07V61H55.74V12.81h3.07M83.53,15.68V12.81h34.94L84,61.48l-2.36-1.85,31.17-43.95Z"/>
  <path id="fin" d="M151.24,15.68v17.5h15.9v2.87h-15.9V61h-3.07V12.81h19.42v2.87M187.26,61h-3.07V12.81h3.07M248.77,62.57l-40.43-43V61h-3.07V12.17L245.7,54.84v-42h3.07Z"/>
  <path class="fill" d="M269.85,58.09h12.26V61H266.78V12.81h3.07M300.06,45.13,293.61,61h-3.13l20.18-49.76L330.78,61h-3.13L321.2,45.13ZM310.66,19l-9.45,23.25h18.84M387.44,62.57,347,19.58V61h-3.07V12.17l40.43,42.67v-42h3.07M405.45,12.81h8.69c7,0,12.58,1.15,17.88,6.07A24.42,24.42,0,0,1,439.69,37a24.24,24.24,0,0,1-7.41,17.63c-5.3,5.11-11,6.39-18.14,6.39h-8.69Zm8.62,45.29c6.32,0,11.56-1.28,16.16-5.81a21.77,21.77,0,0,0-.58-31.36c-4.6-4.15-9.58-5.24-15.58-5.24h-5.56V58.09Z"/>



  <!--


  <path id="hl7" class="fill" d="M34.66,33.25V12.81h3.07V61H34.66V36.12H5.41V61H2.35V12.81H5.41V33.25M58.81,58.09H71.07V61H55.74V12.81h3.07M83.53,15.68V12.81h34.94L84,61.48l-2.36-1.85,31.17-43.95Z"/>
  <path id="fin" class="stroke" transform="translate(2)" d="M34.66,33.25V12.81h3.07V61H34.66V36.12H5.41V61H2.35V12.81H5.41V33.25Z"/>
  <path id="fin" d="M151.24,15.68v17.5h15.9v2.87h-15.9V61h-3.07V12.81h19.42v2.87M187.26,61h-3.07V12.81h3.07M248.77,62.57l-40.43-43V61h-3.07V12.17L245.7,54.84v-42h3.07Z"/>
  <path id="land" d="M269.85,58.09h12.26V61H266.78V12.81h3.07M300.06,45.13,293.61,61h-3.13l20.18-49.76L330.78,61h-3.13L321.2,45.13ZM310.66,19l-9.45,23.25h18.84M387.44,62.57,347,19.58V61h-3.07V12.17l40.43,42.67v-42h3.07M405.45,12.81h8.69c7,0,12.58,1.15,17.88,6.07A24.42,24.42,0,0,1,439.69,37a24.24,24.24,0,0,1-7.41,17.63c-5.3,5.11-11,6.39-18.14,6.39h-8.69Zm8.62,45.29c6.32,0,11.56-1.28,16.16-5.81a21.77,21.77,0,0,0-.58-31.36c-4.6-4.15-9.58-5.24-15.58-5.24h-5.56V58.09Z"/>
  -->
</svg>