<?xml version="1.0" encoding="UTF-8"?>
<svg id="vlpa" version="1.1" viewBox="0 0 262 70" xmlns="http://www.w3.org/2000/svg" xmlns:cc="http://creativecommons.org/ns#" xmlns:dc="http://purl.org/dc/elements/1.1/" xmlns:rdf="http://www.w3.org/1999/02/22-rdf-syntax-ns#">
<title>InterSystems Corporation logo</title>
<desc>An information technology company specialised in enterprise, healthcare, and high-performance database based in Cambridge, Massachusetts, United States</desc>    
 <path class="cls-1" d="m47 37h-5.15v-27.7h5.15z" style="fill:#333695;stroke-width:.433"/>
 <path class="cls-1" d="m67.5 37h-5.07v-11.6c0-2.69-1.85-3.85-3.77-3.85s-3.77 1.16-3.77 3.85v11.6h-5.07v-19.8h5.07v1.73c0.867-1.34 2.89-2.27 4.65-2.27 4.04 0 7.96 2.77 7.96 8.61z" style="fill:#333695;stroke-width:.433"/>
 <path class="cls-1" d="m80.3 32.4v4.56h-4.88c-3.54 0-5.07-1.88-5.07-5.07v-19.3h5.07v4.5h4.88v4.58h-4.88v9.1c0 0.923 0.23 1.58 1.46 1.58z" style="fill:#333695;stroke-width:.433"/>
 <path class="cls-1" d="m87 28.4v0.117c0 2.34 1.35 3.9 3.77 3.9 1.77 0 3-0.867 3.5-2.19h5.15c-0.81 4.14-3.81 6.74-8.65 6.74-5.69 0-8.84-3.61-8.84-9.1v-2.54c0-5.5 3.15-9.1 8.84-9.1s8.84 3.61 8.84 9.1v3.08zm0-4.23v0.039h7.5v-0.039c-0.156-2.08-1.46-3.38-3.73-3.38s-3.57 1.35-3.77 3.38z" style="fill:#333695;stroke-width:.433"/>
 <path class="cls-1" d="m108 37h-5.07v-19.8h5.07v2.17c0.576-1.3 2.27-2.5 4.61-2.5h1.55v4.95h-2.38c-1.92 0-3.77 1.15-3.77 3.84z" style="fill:#333695;stroke-width:.433"/>
 <path class="cls-1" d="m116 28.1h5.31c0.308 2.27 2.08 3.77 4.65 3.77 2.27 0 3.84-0.867 3.84-2.69 0-1.5-0.867-2.35-2.77-2.85l-4.54-1.23c-4.12-1.12-6.15-4-6.15-7.96 0-5.39 4.23-7.85 8.92-7.85 5.38 0 8.73 3.15 9.3 7.73h-5.3c-0.464-1.81-2.35-2.6-4.08-2.6-2.17 0-3.69 0.845-3.69 2.73 0 1.58 1.23 2.27 2.69 2.65l4.39 1.19c4.15 1.12 6.38 3.65 6.38 8.19 0 4.84-3.15 7.8-9 7.8-5.84 0-9.69-3.54-9.96-8.89z" style="fill:#333695;stroke-width:.433"/>
 <path class="cls-1" d="m147 38.7c-1.07 3-1.38 5.2-4.92 5.2h-3.77v-4.58h2.11a1.22 1.22 0 0 0 1.34-0.867l0.585-1.63-7.08-19.8h5.35l4.42 12.7 4.42-12.7h5.35z" style="fill:#333695;stroke-width:.433"/>
 <path class="cls-1" d="m155 30.2h5.08c0.23 1.54 2.04 2.23 3.69 2.23 1 0 2.5-0.23 2.5-1.54 0-0.806-0.576-1.27-1.77-1.54l-4.16-0.923c-2.17-0.498-4.88-2.19-4.88-6.07 0-3.87 3.5-6.11 7.57-6.11 4.07 0 7.35 1.92 7.71 6.41h-5.2c-0.269-1.27-1.38-1.85-2.65-1.85-1.46 0-2.31 0.576-2.35 1.5 0 0.845 0.693 1.27 1.54 1.46l4.46 1c2.17 0.498 4.81 2 4.81 6.11 0 4.42-3.57 6.11-7.73 6.11-4.16 0-8.42-2.11-8.62-6.81z" style="fill:#333695;stroke-width:.433"/>
 <path class="cls-1" d="m190 28.4v0.117c0 2.34 1.35 3.9 3.77 3.9 1.77 0 3-0.867 3.5-2.19h5.16c-0.81 4.14-3.81 6.74-8.65 6.74-5.69 0-8.84-3.61-8.84-9.1v-2.54c0-5.5 3.15-9.1 8.84-9.1 5.69 0 8.83 3.6 8.83 9.1v3.08zm0-4.23v0.039h7.5v-0.039c-0.156-2.08-1.46-3.38-3.73-3.38-2.27 0-3.58 1.35-3.77 3.38z" style="fill:#333695;stroke-width:.433"/>
 <path class="cls-1" d="m223 37h-5.08v-11.6c0-2.65-1.85-3.85-3.65-3.85s-3.65 1.2-3.65 3.85v11.6h-5.08v-19.8h5.08v1.65a5.69 5.69 0 0 1 4.5-2.17 6.39 6.39 0 0 1 5.35 2.6c1.42-1.73 3.47-2.6 6.19-2.6 5.04 0 8.73 2.8 8.73 8.61v11.7h-5.07v-11.6c0-2.65-1.85-3.85-3.65-3.85s-3.65 1.2-3.65 3.85z" style="fill:#333695;stroke-width:.433"/>
 <path class="cls-1" d="m237 30.2h5.07c0.234 1.54 2.04 2.23 3.69 2.23 1 0 2.5-0.23 2.5-1.54 0-0.806-0.576-1.27-1.77-1.54l-4.16-0.923c-2.17-0.498-4.88-2.19-4.88-6.07 0-3.87 3.5-6.11 7.58-6.11s7.37 1.92 7.69 6.42h-5.2c-0.273-1.27-1.39-1.85-2.66-1.85-1.46 0-2.31 0.576-2.34 1.5 0 0.845 0.693 1.27 1.54 1.46l4.46 1c2.17 0.498 4.81 2 4.81 6.11 9e-3 4.42-3.57 6.09-7.71 6.09s-8.44-2.1-8.63-6.79z" style="fill:#333695;stroke-width:.433"/>
 <path class="cls-1" d="m183 32.4v4.56h-4.88c-3.54 0-5.08-1.88-5.08-5.07v-19.3h5.08v4.5h4.88v4.58h-4.88v9.1c0 0.923 0.23 1.58 1.46 1.58z" style="fill:#333695;stroke-width:.433"/>
 <path class="cls-1" d="m258 16.2a3.17 3.17 0 1 1-3.17 3.16 3.16 3.16 0 0 1 3.17-3.16zm0 5.77a2.6 2.6 0 1 0-2.6-2.6 2.6 2.6 0 0 0 2.6 2.59zm1.53-0.767-0.932-1.58a0.958 0.958 0 0 0 0.832-1.04 1.01 1.01 0 0 0-1.14-1.06h-1.49v3.67h0.598v-1.56h0.572l0.914 1.56zm-2.17-3.08h0.897c0.316 0 0.524 0.16 0.524 0.477s-0.208 0.468-0.524 0.468h-0.897z" style="fill:#333695;stroke-width:.433"/>
 <polygon class="cls-1" transform="matrix(.433 0 0 .433 1.98 .565)" points="0 140 40.2 160 40.2 138 20.1 128 20.1 22.5 0 12.4" style="fill:#333695"/>
 <polygon class="cls-2" transform="matrix(.433 0 0 .433 1.98 .565)" points="60.4 20.1 20.1 0 20.1 22.5 40.2 32.6 40.2 138 60.4 148" style="fill:#00b5af"/>
</svg>
