<?xml version="1.0" encoding="UTF-8" standalone="no"?><svg width="530" height="180" xmlns="http://www.w3.org/2000/svg" fill-rule="evenodd" clip-rule="evenodd" stroke-miterlimit="10"><path fill="none" d="M0 0h530v179.798H0z"/><clipPath id="a"><path d="M0 0h530v179.798H0z"/></clipPath><g fill="#fd421a" fill-rule="nonzero" stroke="#fd421a" stroke-width="9.62" clip-path="url(#a)"><path d="M150.933 150.462V70.461c0-15.238.071-30.474-.037-45.71-.038-5.371 1.042-9.741 7.498-9.743 6.135-.002 7.136 4.276 7.134 9.289-.027 44.041-.081 88.084.058 132.127.021 6.443-2.492 8.873-8.912 8.81-23.092-.225-46.216.641-69.269-.324-26.907-1.125-50.722-9.991-64.07-35.388-4.584-8.72-7.323-19.287-7.744-29.144-1.076-25.189-.339-50.455-.412-75.69-.016-5.314.926-9.796 7.496-9.686 6.185.104 6.955 4.451 6.941 9.437-.063 21.189.672 42.404-.173 63.557-1.609 40.269 20.412 59.729 55.755 62.189 21.511 1.499 43.211.277 65.735.277zM500.347 29.916v80.001c0 15.238.071 30.473-.036 45.709-.039 5.371 1.041 9.742 7.497 9.744 6.135.002 7.136-4.276 7.132-9.29-.025-44.04-.079-88.083.06-132.126.021-6.443-2.492-8.874-8.912-8.81-23.092.225-46.216-.641-69.269.323-26.907 1.126-50.722 9.992-64.07 35.389-4.584 8.719-7.323 19.286-7.744 29.143-1.076 25.19-.339 50.456-.412 75.691-.015 5.313.926 9.795 7.496 9.686 6.185-.104 6.955-4.452 6.941-9.438-.063-21.188.672-42.403-.173-63.557-1.609-40.269 20.413-59.729 55.755-62.188 21.511-1.499 43.211-.277 65.735-.277zM207.915 29.916v80.001c0 15.238-.071 30.473.037 45.709.038 5.371-1.041 9.742-7.498 9.744-6.135.002-7.136-4.276-7.134-9.29.027-44.04.081-88.083-.057-132.126-.021-6.443 2.492-8.874 8.912-8.81 23.091.225 46.215-.641 69.268.323 26.908 1.126 50.723 9.992 64.071 35.389 4.584 8.719 7.322 19.286 7.744 29.143 1.075 25.19.338 50.456.412 75.691.015 5.313-.926 9.795-7.496 9.686-6.185-.104-6.955-4.452-6.942-9.438.064-21.188-.671-42.403.174-63.557 1.608-40.269-20.413-59.729-55.755-62.188-21.512-1.499-43.212-.277-65.736-.277z"/><path d="M482.511 150.758h-56.173c-18.503 0-37.007.052-55.508-.035l4.214 14.629c48.362-.025 63.507-.067 107.467.026v-14.62z"/></g></svg>