<?xml version="1.0" encoding="utf-8"?>
<!-- Generator: Adobe Illustrator 26.5.0, SVG Export Plug-In . SVG Version: 6.00 Build 0)  -->
<svg version="1.1" xmlns="http://www.w3.org/2000/svg" xmlns:xlink="http://www.w3.org/1999/xlink" x="0px" y="0px"
	 viewBox="0 0 1000 596.45" style="enable-background:new 0 0 1000 596.45;" xml:space="preserve">
<style type="text/css">
	.st0{fill:#444444;}
	.st1{fill:#8C2D2D;}
	.st2{display:none;}
	.st3{display:inline;}
	.st4{fill:#FFFFFF;}
	.st5{fill:#DAC469;}
	.st6{fill:#1D1D1B;}
</style>
<g id="Pos">
	<g>
		<g>
			<g>
				<path class="st0" d="M528.38,270.39h57.88c6.32,0,12.65,0.71,18.98,2.14c6.32,1.42,11.98,3.79,16.96,7.12
					c4.98,3.32,9.01,7.67,12.1,13.05c3.08,5.38,4.63,12.1,4.63,20.16c0,9.33-2.69,17.16-8.07,23.48
					c-5.38,6.33-12.49,10.67-21.35,13.05v0.47c5.37,0.63,10.36,2.02,14.94,4.15c4.58,2.14,8.54,4.95,11.86,8.42
					c3.32,3.48,5.89,7.59,7.71,12.34c1.82,4.74,2.73,10.04,2.73,15.89c0,8.07-1.66,15.1-4.98,21.11
					c-3.32,6.01-7.83,10.95-13.52,14.83c-5.69,3.88-12.38,6.8-20.04,8.78c-7.67,1.98-15.86,2.97-24.55,2.97h-55.27V270.39z
					 M551.86,341.31h30.6c4.43,0,8.66-0.51,12.69-1.54c4.03-1.03,7.55-2.61,10.56-4.75c3-2.13,5.37-4.82,7.12-8.07
					c1.74-3.24,2.61-7.15,2.61-11.74c0-9.01-3.32-15.46-9.96-19.33c-6.64-3.87-15.58-5.81-26.81-5.81h-26.8V341.31z M551.86,418.41
					h29.42c4.9,0,9.84-0.43,14.83-1.3c4.98-0.87,9.49-2.41,13.52-4.63c4.03-2.21,7.27-5.18,9.73-8.89
					c2.45-3.71,3.68-8.42,3.68-14.12c0-9.96-3.4-17.16-10.2-21.59c-6.8-4.43-16.61-6.64-29.42-6.64h-31.55V418.41z"/>
				<path class="st0" d="M824.66,412.24c-6.64,9.01-15.26,16.33-25.86,21.94c-10.6,5.61-23.33,8.42-38.19,8.42
					c-12.81,0-24.63-2.18-35.46-6.52c-10.83-4.35-20.16-10.44-27.99-18.26c-7.83-7.83-13.96-17.16-18.38-27.99
					c-4.43-10.83-6.64-22.73-6.64-35.7c0-13.13,2.25-25.11,6.76-35.94c4.51-10.83,10.75-20.08,18.74-27.76
					c7.98-7.67,17.44-13.64,28.35-17.91c10.91-4.27,22.77-6.41,35.58-6.41c5.69,0,11.47,0.56,17.32,1.66
					c5.85,1.11,11.46,2.77,16.84,4.98c5.37,2.22,10.28,4.95,14.71,8.18c4.43,3.24,8.22,7,11.39,11.27l-18.5,14.23
					c-4.11-5.69-9.93-10.4-17.44-14.11c-7.51-3.71-15.62-5.57-24.32-5.57c-9.81,0-18.62,1.78-26.45,5.34
					c-7.83,3.56-14.51,8.42-20.04,14.59c-5.54,6.17-9.81,13.32-12.81,21.47c-3.01,8.15-4.51,16.8-4.51,25.98
					c0,9.49,1.46,18.35,4.39,26.57c2.92,8.22,7.12,15.38,12.57,21.47c5.46,6.09,12.1,10.87,19.93,14.35
					c7.83,3.48,16.56,5.22,26.21,5.22c9.49,0,18.11-1.9,25.86-5.69c7.75-3.79,14.15-9.33,19.21-16.6L824.66,412.24z"/>
				<path class="st0" d="M848.62,270.39h57.88c6.32,0,12.65,0.71,18.98,2.14c6.32,1.42,11.98,3.79,16.96,7.12
					c4.98,3.32,9.01,7.67,12.1,13.05c3.08,5.38,4.63,12.1,4.63,20.16c0,9.33-2.69,17.16-8.07,23.48
					c-5.38,6.33-12.49,10.67-21.35,13.05v0.47c5.37,0.63,10.36,2.02,14.94,4.15c4.58,2.14,8.54,4.95,11.86,8.42
					c3.32,3.48,5.89,7.59,7.71,12.34c1.82,4.74,2.73,10.04,2.73,15.89c0,8.07-1.66,15.1-4.98,21.11
					c-3.32,6.01-7.83,10.95-13.52,14.83c-5.69,3.88-12.38,6.8-20.04,8.78c-7.67,1.98-15.86,2.97-24.55,2.97h-55.27V270.39z
					 M872.1,341.31h30.6c4.43,0,8.66-0.51,12.69-1.54c4.03-1.03,7.55-2.61,10.56-4.75c3-2.13,5.37-4.82,7.12-8.07
					c1.74-3.24,2.61-7.15,2.61-11.74c0-9.01-3.32-15.46-9.96-19.33c-6.64-3.87-15.58-5.81-26.81-5.81h-26.8V341.31z M872.1,418.41
					h29.42c4.9,0,9.84-0.43,14.83-1.3c4.98-0.87,9.49-2.41,13.52-4.63c4.03-2.21,7.27-5.18,9.73-8.89
					c2.45-3.71,3.68-8.42,3.68-14.12c0-9.96-3.4-17.16-10.2-21.59c-6.8-4.43-16.61-6.64-29.42-6.64H872.1V418.41z"/>
			</g>
			<g>
				<path class="st0" d="M572.94,554.9h0.13l30.17-76.79h14v92.77h-9.17V490.3h-0.26l-32.59,80.59h-4.84L537.8,490.3h-0.25v80.59
					h-9.17v-92.77h14.01L572.94,554.9z"/>
				<path class="st0" d="M694.91,538.39c0,0.61,0,1.27,0,1.96c0,0.7-0.04,1.44-0.13,2.23h-49.4c0.08,3.06,0.68,5.94,1.78,8.65
					c1.1,2.71,2.63,5.07,4.58,7.08c1.95,2.01,4.24,3.6,6.87,4.78c2.63,1.18,5.47,1.77,8.53,1.77c4.5,0,8.38-1.07,11.65-3.21
					c3.27-2.14,5.75-4.61,7.45-7.4l6.49,5.24c-3.56,4.63-7.49,7.95-11.78,9.96c-4.29,2.01-8.89,3.01-13.81,3.01
					c-4.41,0-8.51-0.81-12.29-2.42c-3.78-1.61-7.02-3.86-9.74-6.75c-2.72-2.88-4.86-6.29-6.43-10.22
					c-1.57-3.93-2.35-8.21-2.35-12.84c0-4.63,0.76-8.91,2.29-12.84c1.53-3.93,3.65-7.34,6.37-10.22c2.71-2.88,5.9-5.13,9.55-6.75
					c3.65-1.62,7.6-2.42,11.84-2.42c4.67,0,8.78,0.81,12.35,2.42c3.57,1.62,6.53,3.8,8.91,6.55c2.38,2.75,4.18,5.96,5.41,9.63
					C694.29,530.27,694.91,534.2,694.91,538.39z M686.13,535.51c-0.25-5.77-2.06-10.55-5.41-14.35c-3.35-3.8-8.13-5.7-14.32-5.7
					c-2.89,0-5.56,0.55-8.02,1.64c-2.46,1.09-4.63,2.58-6.49,4.46c-1.87,1.88-3.35,4.02-4.46,6.42c-1.1,2.4-1.74,4.91-1.91,7.53
					H686.13z"/>
				<path class="st0" d="M762.52,560.54c-2.55,3.93-5.86,6.9-9.93,8.91c-4.07,2.01-8.28,3.01-12.6,3.01
					c-4.67,0-8.89-0.83-12.67-2.49c-3.78-1.66-7-3.93-9.68-6.81c-2.67-2.88-4.75-6.29-6.24-10.22c-1.49-3.93-2.23-8.17-2.23-12.71
					c0-4.54,0.74-8.78,2.23-12.71c1.48-3.93,3.56-7.34,6.24-10.22c2.67-2.88,5.9-5.15,9.68-6.81c3.78-1.66,8-2.49,12.67-2.49
					c4.33,0,8.53,1.03,12.6,3.08c4.07,2.05,7.38,5.09,9.93,9.11h0.25l0-42.27h8.66l0,92.98h-8.66v-10.35H762.52z M718.34,540.23
					c0,3.41,0.51,6.62,1.53,9.63c1.02,3.01,2.48,5.63,4.39,7.86c1.91,2.23,4.27,3.98,7.07,5.24c2.8,1.27,5.98,1.9,9.55,1.9
					c3.31,0,6.37-0.63,9.17-1.9c2.8-1.26,5.22-2.99,7.26-5.18c2.04-2.18,3.63-4.78,4.77-7.8c1.15-3.01,1.72-6.27,1.72-9.76
					c0-3.49-0.57-6.75-1.72-9.76c-1.15-3.01-2.74-5.63-4.77-7.86c-2.04-2.23-4.46-3.98-7.26-5.24c-2.8-1.26-5.86-1.9-9.17-1.9
					c-3.56,0-6.75,0.66-9.55,1.97c-2.8,1.31-5.16,3.08-7.07,5.31s-3.37,4.85-4.39,7.86C718.85,533.61,718.34,536.82,718.34,540.23z"
					/>
				<path class="st0" d="M805.17,485.98c0,1.83-0.64,3.34-1.91,4.52c-1.27,1.18-2.67,1.77-4.2,1.77c-1.53,0-2.93-0.59-4.2-1.77
					c-1.27-1.18-1.91-2.69-1.91-4.52c0-1.83,0.64-3.34,1.91-4.52c1.27-1.18,2.67-1.77,4.2-1.77c1.53,0,2.93,0.59,4.2,1.77
					C804.53,482.64,805.17,484.14,805.17,485.98z M803.38,570.89h-8.66v-61.32h8.66V570.89z"/>
				<path class="st0" d="M869.34,523.58c-1.44-2.36-3.55-4.3-6.3-5.83c-2.76-1.53-5.75-2.29-8.98-2.29c-3.48,0-6.62,0.64-9.42,1.9
					c-2.8,1.27-5.2,3.01-7.19,5.24c-2,2.23-3.52,4.85-4.58,7.86c-1.06,3.01-1.59,6.27-1.59,9.76c0,3.49,0.53,6.73,1.59,9.7
					c1.06,2.97,2.57,5.57,4.52,7.8c1.95,2.23,4.33,3.98,7.13,5.24c2.8,1.27,5.94,1.9,9.42,1.9c3.82,0,7.04-0.74,9.68-2.23
					c2.63-1.48,4.79-3.41,6.49-5.77l6.49,4.98c-2.55,3.23-5.66,5.81-9.36,7.73c-3.69,1.92-8.13,2.88-13.3,2.88
					c-4.84,0-9.21-0.81-13.11-2.42c-3.91-1.61-7.24-3.86-9.99-6.75c-2.76-2.88-4.9-6.29-6.43-10.22c-1.53-3.93-2.29-8.21-2.29-12.84
					c0-4.63,0.76-8.91,2.29-12.84c1.53-3.93,3.67-7.34,6.43-10.22c2.76-2.88,6.09-5.13,9.99-6.75c3.9-1.62,8.28-2.42,13.11-2.42
					c3.99,0,8.04,0.9,12.16,2.69c4.12,1.79,7.45,4.43,9.99,7.93L869.34,523.58z"/>
				<path class="st0" d="M927.65,531.2c0-5.29-1.36-9.24-4.08-11.84c-2.72-2.6-6.66-3.9-11.84-3.9c-3.57,0-6.88,0.66-9.93,1.97
					c-3.06,1.31-5.65,3.06-7.77,5.24l-4.84-5.9c2.46-2.53,5.71-4.63,9.74-6.29c4.03-1.66,8.59-2.49,13.69-2.49
					c3.22,0,6.24,0.46,9.04,1.38c2.8,0.92,5.26,2.29,7.38,4.13c2.12,1.83,3.78,4.15,4.96,6.95c1.19,2.8,1.78,6.07,1.78,9.83v26.86
					c0,2.36,0.08,4.81,0.25,7.34c0.17,2.53,0.42,4.68,0.76,6.42h-7.77c-0.26-1.48-0.47-3.1-0.64-4.85
					c-0.17-1.75-0.26-3.45-0.26-5.11h-0.25c-2.72,4.11-5.79,7.06-9.23,8.85c-3.44,1.79-7.57,2.69-12.41,2.69
					c-2.29,0-4.65-0.33-7.07-0.98c-2.42-0.66-4.63-1.73-6.62-3.22c-2-1.49-3.65-3.42-4.97-5.79c-1.32-2.37-1.97-5.26-1.97-8.68
					c0-4.73,1.17-8.48,3.5-11.24c2.33-2.76,5.45-4.82,9.36-6.18c3.9-1.36,8.38-2.23,13.43-2.63c5.05-0.39,10.29-0.59,15.72-0.59
					V531.2z M925.1,540.23c-3.57,0-7.15,0.15-10.76,0.46c-3.61,0.31-6.88,0.92-9.8,1.83c-2.93,0.92-5.33,2.25-7.19,4
					c-1.87,1.75-2.8,4.06-2.8,6.94c0,2.18,0.4,4.02,1.21,5.5c0.8,1.49,1.89,2.69,3.25,3.6c1.36,0.92,2.86,1.57,4.52,1.97
					c1.66,0.39,3.33,0.59,5.03,0.59c3.05,0,5.77-0.55,8.15-1.64c2.38-1.09,4.37-2.58,5.98-4.46c1.61-1.88,2.84-4.04,3.69-6.49
					c0.85-2.44,1.27-5.02,1.27-7.73v-4.59H925.1z"/>
				<path class="st0" d="M966.99,570.89h-8.66l0-92.98h8.66L966.99,570.89z"/>
			</g>
		</g>
		<path class="st1" d="M506.79,50.77c-0.01-0.17-0.02-0.35-0.04-0.53c-6.92-33.82-3.24-38.58-10.44,4.74
			c-7.96,41.95-17.04,76.5-17.04,76.5c-8.47,32.92-17.88,58.06-28.36,83.45c-7.44,17.73-15.54,35.6-25.71,55.94
			c-2.37,0.15-4.71,0.36-7,0.64c-5.39,0.7-10.61,1.75-15.72,3l0.01-0.01c79.66-150.36,72.3-237.62,72.3-237.62
			c-47.47,154.67-100.04,236.1-109.51,250.05c-15.99,6.47-31.38,13.98-46.5,21.89c-11.55,6.24-22.95,12.69-34.11,19.51
			c-17.42,8.89-30.93,16.94-30.57,19.01c2.65-1.18,5.61-2.54,8.81-4.02c2.57-1.1,5.13-2.2,7.7-3.3c21.75-7.3,43.3-14.56,64.94-21.09
			c2.75-0.83,5.5-1.65,8.25-2.46c-1.18,1.4-2.35,2.83-3.55,4.19c-12.43,14.01-26,25.38-40.49,32.59
			c-14.49,7.25-29.7,9.83-44.75,7.28c-15.15-2.59-31.34-9.61-47.99-17.66c-24.35-13.07-45.97-27.51-67.81-39.94
			c-10.96-6.23-21.92-12.1-33.92-16.75c-6.02-2.29-12.34-4.29-19.35-5.42c-6.95-1.07-14.98-1.34-23.34,1.54
			c-8.39,2.74-15.7,9.42-19.6,15.96c-4.03,6.41-6.39,13.06-7.9,19.64c-2.91,13.2-2.44,25.99-0.51,38.27
			c4.06,24.56,14.11,47.34,27.74,68.93c5.48,8.92,7.68,11.86,10.04,15.25c2.43,3.33,5.05,7.14,12.84,16.59
			c11.61,13.41,18.65,20.16,26.53,27.61c7.96,7.33,16.8,15.42,34.32,28.51c12.71,9.22,24.59,16.81,35.71,23.38
			c20.77,13.08,42.54,24.36,65.2,33.63c-32.12-31.29-64.14-61.02-92.66-93.04c-14.23-15.98-27.73-32.32-39.44-49.38
			c-5.82-8.53-11.35-17.13-15.96-25.98c-4.74-8.74-8.73-17.67-11.37-26.42c-2.79-8.65-4.07-17.29-3.32-23.99
			c0.31-3.35,1.08-6.15,2.22-8.36c1.15-2.23,2.62-3.98,4.78-5.68c2.17-1.71,4.36-2.78,7.24-3.4c2.86-0.58,6.42-0.8,10.47-0.3
			c8.12,0.98,17.63,4.11,27.13,7.97c19.17,7.82,38.89,18.26,59.53,27.09c10.35,4.41,20.91,8.58,31.8,11.84
			c1.19,0.37,2.39,0.72,3.59,1.06c2.61,0.89,5.24,1.74,7.94,2.5l3.29,0.87l3.28,0.78c2.41,0.5,4.63,0.94,6.99,1.27
			c4.67,0.68,9.41,1.01,14.15,0.98c19.13-0.02,37.59-6.59,52.87-16.1c15.42-9.52,28.3-21.65,39.77-34.67
			c8.54-9.82,16.34-20.17,23.64-30.94c6.07-1.34,12.13-2.54,18.16-3.52c2.75-0.43,5.51-0.82,8.25-1.15
			c-1.52,2.86-4.07,7.56-7.23,13.03c-25.09,46.03-49.95,85.75-71.77,120.53c-11.83,17.52-23.55,34.31-35.03,50.72
			c-11.43,16.47-22.76,32.27-33.15,49c-2.58,4.24-5.09,8.5-7.39,13.37c-1.13,2.48-2.26,5-3.06,8.65c-0.27,1.94-0.91,4.1,0.34,8.13
			c0.18,0.51,0.39,1.01,0.61,1.48c0.36,0.7,0.85,1.45,1.38,2.09c0.21,0.27,0.68,0.78,0.71,0.81l0.16,0.15l0.16,0.15l0.08,0.08
			c1.51,1.31,0.67,0.55,1.12,0.92c2.45,1.71,4.78,2.03,6.36,2.11c3.23,0.06,4.95-0.58,6.62-1.1c1.61-0.55,2.97-1.16,4.25-1.79
			c2.54-1.26,4.76-2.59,6.91-3.97c2.26-1.46,4.41-2.96,6.5-4.49c2.67-1.46,5.29-2.99,7.9-4.54c10.09-6.06,19.63-12.9,28.95-20.02
			c18.58-14.29,35.97-30.06,52.4-46.82c32.62-33.68,61.83-71.39,83.15-114.55c5.25-10.89,9.92-21.82,13.97-33.7
			c1.95-6.18,3.63-12.66,4.38-19.86c0.67-7.13,0.69-15.38-2.91-24.04c-1.8-4.29-4.57-8.44-8.01-11.77
			c-2.44-2.36-5.13-4.26-7.86-5.78c-1.53-1.45-3.14-2.7-4.8-3.75c2.34-4.77,4.64-9.57,6.89-14.39c0.06-0.12,0.11-0.23,0.17-0.35
			c0.05-0.11,0.1-0.22,0.15-0.33c11.75-25.23,22.17-51.1,30.48-77.77c7.15-22.88,12.63-46.36,15.49-70.19
			C509.64,92.25,510.22,69.64,506.79,50.77z M279.73,539.8c0.97-1.38,1.95-2.73,2.96-4.12l10.83-14.13l21.81-28.2
			c14.41-18.91,28.66-37.98,42.36-57.46c27.54-38.85,53.27-79.09,76.41-120.89c2.26-4.14,4.49-8.31,6.7-12.49
			c1.14,0.38,2.18,0.79,3.06,1.24c1.86,1.03,2.85,1.92,3.52,3c-0.27,3.49-1.06,7.32-2.18,11.16c-0.73,2.46-1.52,4.96-2.44,7.44
			c-0.97,2.62-1.95,5.2-2.99,7.78c-2.08,5.17-4.3,10.3-6.66,15.37c-18.82,40.72-44.29,78.74-72.04,114.89
			c-11.47,14.67-23.36,29.1-35.81,43.04c-4.34,4.29-8.71,8.54-13.18,12.71c-7.34,6.85-14.9,13.56-22.78,20
			c-3.94,3.2-7.97,6.35-12.09,9.28c-1.72,1.21-3.49,2.41-5.26,3.53c0.02-0.04,0.04-0.08,0.06-0.11
			C274.37,547.78,277.01,543.76,279.73,539.8z M263.35,556.27c-0.01,0-0.04,0.01-0.06,0.01
			C263.12,556.35,262.99,556.25,263.35,556.27z"/>
	</g>
</g>
<g id="Neg" class="st2">
	<g class="st3">
		<g>
			<g>
				<path class="st4" d="M528.38,270.39h57.88c6.32,0,12.65,0.71,18.98,2.14c6.32,1.42,11.98,3.79,16.96,7.12
					c4.98,3.32,9.01,7.67,12.1,13.05c3.08,5.38,4.63,12.1,4.63,20.16c0,9.33-2.69,17.16-8.07,23.48
					c-5.38,6.33-12.49,10.67-21.35,13.05v0.47c5.37,0.63,10.36,2.02,14.94,4.15c4.58,2.14,8.54,4.95,11.86,8.42
					c3.32,3.48,5.89,7.59,7.71,12.34c1.82,4.74,2.73,10.04,2.73,15.89c0,8.07-1.66,15.1-4.98,21.11
					c-3.32,6.01-7.83,10.95-13.52,14.83c-5.69,3.88-12.38,6.8-20.04,8.78c-7.67,1.98-15.86,2.97-24.55,2.97h-55.27V270.39z
					 M551.86,341.31h30.6c4.43,0,8.66-0.51,12.69-1.54c4.03-1.03,7.55-2.61,10.56-4.75c3-2.13,5.37-4.82,7.12-8.07
					c1.74-3.24,2.61-7.15,2.61-11.74c0-9.01-3.32-15.46-9.96-19.33c-6.64-3.87-15.58-5.81-26.81-5.81h-26.8V341.31z M551.86,418.41
					h29.42c4.9,0,9.84-0.43,14.83-1.3c4.98-0.87,9.49-2.41,13.52-4.63c4.03-2.21,7.27-5.18,9.73-8.89
					c2.45-3.71,3.68-8.42,3.68-14.12c0-9.96-3.4-17.16-10.2-21.59c-6.8-4.43-16.61-6.64-29.42-6.64h-31.55V418.41z"/>
				<path class="st4" d="M824.66,412.24c-6.64,9.01-15.26,16.33-25.86,21.94c-10.6,5.61-23.33,8.42-38.19,8.42
					c-12.81,0-24.63-2.18-35.46-6.52c-10.83-4.35-20.16-10.44-27.99-18.26c-7.83-7.83-13.96-17.16-18.38-27.99
					c-4.43-10.83-6.64-22.73-6.64-35.7c0-13.13,2.25-25.11,6.76-35.94c4.51-10.83,10.75-20.08,18.74-27.76
					c7.98-7.67,17.44-13.64,28.35-17.91c10.91-4.27,22.77-6.41,35.58-6.41c5.69,0,11.47,0.56,17.32,1.66
					c5.85,1.11,11.46,2.77,16.84,4.98c5.37,2.22,10.28,4.95,14.71,8.18c4.43,3.24,8.22,7,11.39,11.27l-18.5,14.23
					c-4.11-5.69-9.93-10.4-17.44-14.11c-7.51-3.71-15.62-5.57-24.32-5.57c-9.81,0-18.62,1.78-26.45,5.34
					c-7.83,3.56-14.51,8.42-20.04,14.59c-5.54,6.17-9.81,13.32-12.81,21.47c-3.01,8.15-4.51,16.8-4.51,25.98
					c0,9.49,1.46,18.35,4.39,26.57c2.92,8.22,7.12,15.38,12.57,21.47c5.46,6.09,12.1,10.87,19.93,14.35
					c7.83,3.48,16.56,5.22,26.21,5.22c9.49,0,18.11-1.9,25.86-5.69c7.75-3.79,14.15-9.33,19.21-16.6L824.66,412.24z"/>
				<path class="st4" d="M848.62,270.39h57.88c6.32,0,12.65,0.71,18.98,2.14c6.32,1.42,11.98,3.79,16.96,7.12
					c4.98,3.32,9.01,7.67,12.1,13.05c3.08,5.38,4.63,12.1,4.63,20.16c0,9.33-2.69,17.16-8.07,23.48
					c-5.38,6.33-12.49,10.67-21.35,13.05v0.47c5.37,0.63,10.36,2.02,14.94,4.15c4.58,2.14,8.54,4.95,11.86,8.42
					c3.32,3.48,5.89,7.59,7.71,12.34c1.82,4.74,2.73,10.04,2.73,15.89c0,8.07-1.66,15.1-4.98,21.11
					c-3.32,6.01-7.83,10.95-13.52,14.83c-5.69,3.88-12.38,6.8-20.04,8.78c-7.67,1.98-15.86,2.97-24.55,2.97h-55.27V270.39z
					 M872.1,341.31h30.6c4.43,0,8.66-0.51,12.69-1.54c4.03-1.03,7.55-2.61,10.56-4.75c3-2.13,5.37-4.82,7.12-8.07
					c1.74-3.24,2.61-7.15,2.61-11.74c0-9.01-3.32-15.46-9.96-19.33c-6.64-3.87-15.58-5.81-26.81-5.81h-26.8V341.31z M872.1,418.41
					h29.42c4.9,0,9.84-0.43,14.83-1.3c4.98-0.87,9.49-2.41,13.52-4.63c4.03-2.21,7.27-5.18,9.73-8.89
					c2.45-3.71,3.68-8.42,3.68-14.12c0-9.96-3.4-17.16-10.2-21.59c-6.8-4.43-16.61-6.64-29.42-6.64H872.1V418.41z"/>
			</g>
			<g>
				<path class="st4" d="M572.94,554.9h0.13l30.17-76.79h14v92.77h-9.17V490.3h-0.26l-32.59,80.59h-4.84L537.8,490.3h-0.25v80.59
					h-9.17v-92.77h14.01L572.94,554.9z"/>
				<path class="st4" d="M694.91,538.39c0,0.61,0,1.27,0,1.96c0,0.7-0.04,1.44-0.13,2.23h-49.4c0.08,3.06,0.68,5.94,1.78,8.65
					c1.1,2.71,2.63,5.07,4.58,7.08c1.95,2.01,4.24,3.6,6.87,4.78c2.63,1.18,5.47,1.77,8.53,1.77c4.5,0,8.38-1.07,11.65-3.21
					c3.27-2.14,5.75-4.61,7.45-7.4l6.49,5.24c-3.56,4.63-7.49,7.95-11.78,9.96c-4.29,2.01-8.89,3.01-13.81,3.01
					c-4.41,0-8.51-0.81-12.29-2.42c-3.78-1.61-7.02-3.86-9.74-6.75c-2.72-2.88-4.86-6.29-6.43-10.22
					c-1.57-3.93-2.35-8.21-2.35-12.84c0-4.63,0.76-8.91,2.29-12.84c1.53-3.93,3.65-7.34,6.37-10.22c2.71-2.88,5.9-5.13,9.55-6.75
					c3.65-1.62,7.6-2.42,11.84-2.42c4.67,0,8.78,0.81,12.35,2.42c3.57,1.62,6.53,3.8,8.91,6.55c2.38,2.75,4.18,5.96,5.41,9.63
					C694.29,530.27,694.91,534.2,694.91,538.39z M686.13,535.51c-0.25-5.77-2.06-10.55-5.41-14.35c-3.35-3.8-8.13-5.7-14.32-5.7
					c-2.89,0-5.56,0.55-8.02,1.64c-2.46,1.09-4.63,2.58-6.49,4.46c-1.87,1.88-3.35,4.02-4.46,6.42c-1.1,2.4-1.74,4.91-1.91,7.53
					H686.13z"/>
				<path class="st4" d="M762.52,560.54c-2.55,3.93-5.86,6.9-9.93,8.91c-4.07,2.01-8.28,3.01-12.6,3.01
					c-4.67,0-8.89-0.83-12.67-2.49c-3.78-1.66-7-3.93-9.68-6.81c-2.67-2.88-4.75-6.29-6.24-10.22c-1.49-3.93-2.23-8.17-2.23-12.71
					c0-4.54,0.74-8.78,2.23-12.71c1.48-3.93,3.56-7.34,6.24-10.22c2.67-2.88,5.9-5.15,9.68-6.81c3.78-1.66,8-2.49,12.67-2.49
					c4.33,0,8.53,1.03,12.6,3.08c4.07,2.05,7.38,5.09,9.93,9.11h0.25l0-42.27h8.66l0,92.98h-8.66v-10.35H762.52z M718.34,540.23
					c0,3.41,0.51,6.62,1.53,9.63c1.02,3.01,2.48,5.63,4.39,7.86c1.91,2.23,4.27,3.98,7.07,5.24c2.8,1.27,5.98,1.9,9.55,1.9
					c3.31,0,6.37-0.63,9.17-1.9c2.8-1.26,5.22-2.99,7.26-5.18c2.04-2.18,3.63-4.78,4.77-7.8c1.15-3.01,1.72-6.27,1.72-9.76
					c0-3.49-0.57-6.75-1.72-9.76c-1.15-3.01-2.74-5.63-4.77-7.86c-2.04-2.23-4.46-3.98-7.26-5.24c-2.8-1.26-5.86-1.9-9.17-1.9
					c-3.56,0-6.75,0.66-9.55,1.97c-2.8,1.31-5.16,3.08-7.07,5.31s-3.37,4.85-4.39,7.86C718.85,533.61,718.34,536.82,718.34,540.23z"
					/>
				<path class="st4" d="M805.17,485.98c0,1.83-0.64,3.34-1.91,4.52c-1.27,1.18-2.67,1.77-4.2,1.77c-1.53,0-2.93-0.59-4.2-1.77
					c-1.27-1.18-1.91-2.69-1.91-4.52c0-1.83,0.64-3.34,1.91-4.52c1.27-1.18,2.67-1.77,4.2-1.77c1.53,0,2.93,0.59,4.2,1.77
					C804.53,482.64,805.17,484.14,805.17,485.98z M803.38,570.89h-8.66v-61.32h8.66V570.89z"/>
				<path class="st4" d="M869.34,523.58c-1.44-2.36-3.55-4.3-6.3-5.83c-2.76-1.53-5.75-2.29-8.98-2.29c-3.48,0-6.62,0.64-9.42,1.9
					c-2.8,1.27-5.2,3.01-7.19,5.24c-2,2.23-3.52,4.85-4.58,7.86c-1.06,3.01-1.59,6.27-1.59,9.76c0,3.49,0.53,6.73,1.59,9.7
					c1.06,2.97,2.57,5.57,4.52,7.8c1.95,2.23,4.33,3.98,7.13,5.24c2.8,1.27,5.94,1.9,9.42,1.9c3.82,0,7.04-0.74,9.68-2.23
					c2.63-1.48,4.79-3.41,6.49-5.77l6.49,4.98c-2.55,3.23-5.66,5.81-9.36,7.73c-3.69,1.92-8.13,2.88-13.3,2.88
					c-4.84,0-9.21-0.81-13.11-2.42c-3.91-1.61-7.24-3.86-9.99-6.75c-2.76-2.88-4.9-6.29-6.43-10.22c-1.53-3.93-2.29-8.21-2.29-12.84
					c0-4.63,0.76-8.91,2.29-12.84c1.53-3.93,3.67-7.34,6.43-10.22c2.76-2.88,6.09-5.13,9.99-6.75c3.9-1.62,8.28-2.42,13.11-2.42
					c3.99,0,8.04,0.9,12.16,2.69c4.12,1.79,7.45,4.43,9.99,7.93L869.34,523.58z"/>
				<path class="st4" d="M927.65,531.2c0-5.29-1.36-9.24-4.08-11.84c-2.72-2.6-6.66-3.9-11.84-3.9c-3.57,0-6.88,0.66-9.93,1.97
					c-3.06,1.31-5.65,3.06-7.77,5.24l-4.84-5.9c2.46-2.53,5.71-4.63,9.74-6.29c4.03-1.66,8.59-2.49,13.69-2.49
					c3.22,0,6.24,0.46,9.04,1.38c2.8,0.92,5.26,2.29,7.38,4.13c2.12,1.83,3.78,4.15,4.96,6.95c1.19,2.8,1.78,6.07,1.78,9.83v26.86
					c0,2.36,0.08,4.81,0.25,7.34c0.17,2.53,0.42,4.68,0.76,6.42h-7.77c-0.26-1.48-0.47-3.1-0.64-4.85
					c-0.17-1.75-0.26-3.45-0.26-5.11h-0.25c-2.72,4.11-5.79,7.06-9.23,8.85c-3.44,1.79-7.57,2.69-12.41,2.69
					c-2.29,0-4.65-0.33-7.07-0.98c-2.42-0.66-4.63-1.73-6.62-3.22c-2-1.49-3.65-3.42-4.97-5.79c-1.32-2.37-1.97-5.26-1.97-8.68
					c0-4.73,1.17-8.48,3.5-11.24c2.33-2.76,5.45-4.82,9.36-6.18c3.9-1.36,8.38-2.23,13.43-2.63c5.05-0.39,10.29-0.59,15.72-0.59
					V531.2z M925.1,540.23c-3.57,0-7.15,0.15-10.76,0.46c-3.61,0.31-6.88,0.92-9.8,1.83c-2.93,0.92-5.33,2.25-7.19,4
					c-1.87,1.75-2.8,4.06-2.8,6.94c0,2.18,0.4,4.02,1.21,5.5c0.8,1.49,1.89,2.69,3.25,3.6c1.36,0.92,2.86,1.57,4.52,1.97
					c1.66,0.39,3.33,0.59,5.03,0.59c3.05,0,5.77-0.55,8.15-1.64c2.38-1.09,4.37-2.58,5.98-4.46c1.61-1.88,2.84-4.04,3.69-6.49
					c0.85-2.44,1.27-5.02,1.27-7.73v-4.59H925.1z"/>
				<path class="st4" d="M966.99,570.89h-8.66l0-92.98h8.66L966.99,570.89z"/>
			</g>
		</g>
		<path class="st5" d="M506.79,50.77c-0.01-0.17-0.02-0.35-0.04-0.53c-6.92-33.82-3.24-38.58-10.44,4.74
			c-7.96,41.95-17.04,76.5-17.04,76.5c-8.47,32.92-17.88,58.06-28.36,83.45c-7.44,17.73-15.54,35.6-25.71,55.94
			c-2.37,0.15-4.71,0.36-7,0.64c-5.39,0.7-10.61,1.75-15.72,3l0.01-0.01c79.66-150.36,72.3-237.62,72.3-237.62
			c-47.47,154.67-100.04,236.1-109.51,250.05c-15.99,6.47-31.38,13.98-46.5,21.89c-11.55,6.24-22.95,12.69-34.11,19.51
			c-17.42,8.89-30.93,16.94-30.57,19.01c2.65-1.18,5.61-2.54,8.81-4.02c2.57-1.1,5.13-2.2,7.7-3.3c21.75-7.3,43.3-14.56,64.94-21.09
			c2.75-0.83,5.5-1.65,8.25-2.46c-1.18,1.4-2.35,2.83-3.55,4.19c-12.43,14.01-26,25.38-40.49,32.59
			c-14.49,7.25-29.7,9.83-44.75,7.28c-15.15-2.59-31.34-9.61-47.99-17.66c-24.35-13.07-45.97-27.51-67.81-39.94
			c-10.96-6.23-21.92-12.1-33.92-16.75c-6.02-2.29-12.34-4.29-19.35-5.42c-6.95-1.07-14.98-1.34-23.34,1.54
			c-8.39,2.74-15.7,9.42-19.6,15.96c-4.03,6.41-6.39,13.06-7.9,19.64c-2.91,13.2-2.44,25.99-0.51,38.27
			c4.06,24.56,14.11,47.34,27.74,68.93c5.48,8.92,7.68,11.86,10.04,15.25c2.43,3.33,5.05,7.14,12.84,16.59
			c11.61,13.41,18.65,20.16,26.53,27.61c7.96,7.33,16.8,15.42,34.32,28.51c12.71,9.22,24.59,16.81,35.71,23.38
			c20.77,13.08,42.54,24.36,65.2,33.63c-32.12-31.29-64.14-61.02-92.66-93.04c-14.23-15.98-27.73-32.32-39.44-49.38
			c-5.82-8.53-11.35-17.13-15.96-25.98c-4.74-8.74-8.73-17.67-11.37-26.42c-2.79-8.65-4.07-17.29-3.32-23.99
			c0.31-3.35,1.08-6.15,2.22-8.36c1.15-2.23,2.62-3.98,4.78-5.68c2.17-1.71,4.36-2.78,7.24-3.4c2.86-0.58,6.42-0.8,10.47-0.3
			c8.12,0.98,17.63,4.11,27.13,7.97c19.17,7.82,38.89,18.26,59.53,27.09c10.35,4.41,20.91,8.58,31.8,11.84
			c1.19,0.37,2.39,0.72,3.59,1.06c2.61,0.89,5.24,1.74,7.94,2.5l3.29,0.87l3.28,0.78c2.41,0.5,4.63,0.94,6.99,1.27
			c4.67,0.68,9.41,1.01,14.15,0.98c19.13-0.02,37.59-6.59,52.87-16.1c15.42-9.52,28.3-21.65,39.77-34.67
			c8.54-9.82,16.34-20.17,23.64-30.94c6.07-1.34,12.13-2.54,18.16-3.52c2.75-0.43,5.51-0.82,8.25-1.15
			c-1.52,2.86-4.07,7.56-7.23,13.03c-25.09,46.03-49.95,85.75-71.77,120.53c-11.83,17.52-23.55,34.31-35.03,50.72
			c-11.43,16.47-22.76,32.27-33.15,49c-2.58,4.24-5.09,8.5-7.39,13.37c-1.13,2.48-2.26,5-3.06,8.65c-0.27,1.94-0.91,4.1,0.34,8.13
			c0.18,0.51,0.39,1.01,0.61,1.48c0.36,0.7,0.85,1.45,1.38,2.09c0.21,0.27,0.68,0.78,0.71,0.81l0.16,0.15l0.16,0.15l0.08,0.08
			c1.51,1.31,0.67,0.55,1.12,0.92c2.45,1.71,4.78,2.03,6.36,2.11c3.23,0.06,4.95-0.58,6.62-1.1c1.61-0.55,2.97-1.16,4.25-1.79
			c2.54-1.26,4.76-2.59,6.91-3.97c2.26-1.46,4.41-2.96,6.5-4.49c2.67-1.46,5.29-2.99,7.9-4.54c10.09-6.06,19.63-12.9,28.95-20.02
			c18.58-14.29,35.97-30.06,52.4-46.82c32.62-33.68,61.83-71.39,83.15-114.55c5.25-10.89,9.92-21.82,13.97-33.7
			c1.95-6.18,3.63-12.66,4.38-19.86c0.67-7.13,0.69-15.38-2.91-24.04c-1.8-4.29-4.57-8.44-8.01-11.77
			c-2.44-2.36-5.13-4.26-7.86-5.78c-1.53-1.45-3.14-2.7-4.8-3.75c2.34-4.77,4.64-9.57,6.89-14.39c0.06-0.12,0.11-0.23,0.17-0.35
			c0.05-0.11,0.1-0.22,0.15-0.33c11.75-25.23,22.17-51.1,30.48-77.77c7.15-22.88,12.63-46.36,15.49-70.19
			C509.64,92.25,510.22,69.64,506.79,50.77z M279.73,539.8c0.97-1.38,1.95-2.73,2.96-4.12l10.83-14.13l21.81-28.2
			c14.41-18.91,28.66-37.98,42.36-57.46c27.54-38.85,53.27-79.09,76.41-120.89c2.26-4.14,4.49-8.31,6.7-12.49
			c1.14,0.38,2.18,0.79,3.06,1.24c1.86,1.03,2.85,1.92,3.52,3c-0.27,3.49-1.06,7.32-2.18,11.16c-0.73,2.46-1.52,4.96-2.44,7.44
			c-0.97,2.62-1.95,5.2-2.99,7.78c-2.08,5.17-4.3,10.3-6.66,15.37c-18.82,40.72-44.29,78.74-72.04,114.89
			c-11.47,14.67-23.36,29.1-35.81,43.04c-4.34,4.29-8.71,8.54-13.18,12.71c-7.34,6.85-14.9,13.56-22.78,20
			c-3.94,3.2-7.97,6.35-12.09,9.28c-1.72,1.21-3.49,2.41-5.26,3.53c0.02-0.04,0.04-0.08,0.06-0.11
			C274.37,547.78,277.01,543.76,279.73,539.8z M263.35,556.27c-0.01,0-0.04,0.01-0.06,0.01
			C263.12,556.35,262.99,556.25,263.35,556.27z"/>
	</g>
</g>
<g id="Mono_white" class="st2">
	<g class="st3">
		<g>
			<g>
				<path class="st4" d="M528.38,270.39h57.88c6.32,0,12.65,0.71,18.98,2.14c6.32,1.42,11.98,3.79,16.96,7.12
					c4.98,3.32,9.01,7.67,12.1,13.05c3.08,5.38,4.63,12.1,4.63,20.16c0,9.33-2.69,17.16-8.07,23.48
					c-5.38,6.33-12.49,10.67-21.35,13.05v0.47c5.37,0.63,10.36,2.02,14.94,4.15c4.58,2.14,8.54,4.95,11.86,8.42
					c3.32,3.48,5.89,7.59,7.71,12.34c1.82,4.74,2.73,10.04,2.73,15.89c0,8.07-1.66,15.1-4.98,21.11
					c-3.32,6.01-7.83,10.95-13.52,14.83c-5.69,3.88-12.38,6.8-20.04,8.78c-7.67,1.98-15.86,2.97-24.55,2.97h-55.27V270.39z
					 M551.86,341.31h30.6c4.43,0,8.66-0.51,12.69-1.54c4.03-1.03,7.55-2.61,10.56-4.75c3-2.13,5.37-4.82,7.12-8.07
					c1.74-3.24,2.61-7.15,2.61-11.74c0-9.01-3.32-15.46-9.96-19.33c-6.64-3.87-15.58-5.81-26.81-5.81h-26.8V341.31z M551.86,418.41
					h29.42c4.9,0,9.84-0.43,14.83-1.3c4.98-0.87,9.49-2.41,13.52-4.63c4.03-2.21,7.27-5.18,9.73-8.89
					c2.45-3.71,3.68-8.42,3.68-14.12c0-9.96-3.4-17.16-10.2-21.59c-6.8-4.43-16.61-6.64-29.42-6.64h-31.55V418.41z"/>
				<path class="st4" d="M824.66,412.24c-6.64,9.01-15.26,16.33-25.86,21.94c-10.6,5.61-23.33,8.42-38.19,8.42
					c-12.81,0-24.63-2.18-35.46-6.52c-10.83-4.35-20.16-10.44-27.99-18.26c-7.83-7.83-13.96-17.16-18.38-27.99
					c-4.43-10.83-6.64-22.73-6.64-35.7c0-13.13,2.25-25.11,6.76-35.94c4.51-10.83,10.75-20.08,18.74-27.76
					c7.98-7.67,17.44-13.64,28.35-17.91c10.91-4.27,22.77-6.41,35.58-6.41c5.69,0,11.47,0.56,17.32,1.66
					c5.85,1.11,11.46,2.77,16.84,4.98c5.37,2.22,10.28,4.95,14.71,8.18c4.43,3.24,8.22,7,11.39,11.27l-18.5,14.23
					c-4.11-5.69-9.93-10.4-17.44-14.11c-7.51-3.71-15.62-5.57-24.32-5.57c-9.81,0-18.62,1.78-26.45,5.34
					c-7.83,3.56-14.51,8.42-20.04,14.59c-5.54,6.17-9.81,13.32-12.81,21.47c-3.01,8.15-4.51,16.8-4.51,25.98
					c0,9.49,1.46,18.35,4.39,26.57c2.92,8.22,7.12,15.38,12.57,21.47c5.46,6.09,12.1,10.87,19.93,14.35
					c7.83,3.48,16.56,5.22,26.21,5.22c9.49,0,18.11-1.9,25.86-5.69c7.75-3.79,14.15-9.33,19.21-16.6L824.66,412.24z"/>
				<path class="st4" d="M848.62,270.39h57.88c6.32,0,12.65,0.71,18.98,2.14c6.32,1.42,11.98,3.79,16.96,7.12
					c4.98,3.32,9.01,7.67,12.1,13.05c3.08,5.38,4.63,12.1,4.63,20.16c0,9.33-2.69,17.16-8.07,23.48
					c-5.38,6.33-12.49,10.67-21.35,13.05v0.47c5.37,0.63,10.36,2.02,14.94,4.15c4.58,2.14,8.54,4.95,11.86,8.42
					c3.32,3.48,5.89,7.59,7.71,12.34c1.82,4.74,2.73,10.04,2.73,15.89c0,8.07-1.66,15.1-4.98,21.11
					c-3.32,6.01-7.83,10.95-13.52,14.83c-5.69,3.88-12.38,6.8-20.04,8.78c-7.67,1.98-15.86,2.97-24.55,2.97h-55.27V270.39z
					 M872.1,341.31h30.6c4.43,0,8.66-0.51,12.69-1.54c4.03-1.03,7.55-2.61,10.56-4.75c3-2.13,5.37-4.82,7.12-8.07
					c1.74-3.24,2.61-7.15,2.61-11.74c0-9.01-3.32-15.46-9.96-19.33c-6.64-3.87-15.58-5.81-26.81-5.81h-26.8V341.31z M872.1,418.41
					h29.42c4.9,0,9.84-0.43,14.83-1.3c4.98-0.87,9.49-2.41,13.52-4.63c4.03-2.21,7.27-5.18,9.73-8.89
					c2.45-3.71,3.68-8.42,3.68-14.12c0-9.96-3.4-17.16-10.2-21.59c-6.8-4.43-16.61-6.64-29.42-6.64H872.1V418.41z"/>
			</g>
			<g>
				<path class="st4" d="M572.94,554.9h0.13l30.17-76.79h14v92.77h-9.17V490.3h-0.26l-32.59,80.59h-4.84L537.8,490.3h-0.25v80.59
					h-9.17v-92.77h14.01L572.94,554.9z"/>
				<path class="st4" d="M694.91,538.39c0,0.61,0,1.27,0,1.96c0,0.7-0.04,1.44-0.13,2.23h-49.4c0.08,3.06,0.68,5.94,1.78,8.65
					c1.1,2.71,2.63,5.07,4.58,7.08c1.95,2.01,4.24,3.6,6.87,4.78c2.63,1.18,5.47,1.77,8.53,1.77c4.5,0,8.38-1.07,11.65-3.21
					c3.27-2.14,5.75-4.61,7.45-7.4l6.49,5.24c-3.56,4.63-7.49,7.95-11.78,9.96c-4.29,2.01-8.89,3.01-13.81,3.01
					c-4.41,0-8.51-0.81-12.29-2.42c-3.78-1.61-7.02-3.86-9.74-6.75c-2.72-2.88-4.86-6.29-6.43-10.22
					c-1.57-3.93-2.35-8.21-2.35-12.84c0-4.63,0.76-8.91,2.29-12.84c1.53-3.93,3.65-7.34,6.37-10.22c2.71-2.88,5.9-5.13,9.55-6.75
					c3.65-1.62,7.6-2.42,11.84-2.42c4.67,0,8.78,0.81,12.35,2.42c3.57,1.62,6.53,3.8,8.91,6.55c2.38,2.75,4.18,5.96,5.41,9.63
					C694.29,530.27,694.91,534.2,694.91,538.39z M686.13,535.51c-0.25-5.77-2.06-10.55-5.41-14.35c-3.35-3.8-8.13-5.7-14.32-5.7
					c-2.89,0-5.56,0.55-8.02,1.64c-2.46,1.09-4.63,2.58-6.49,4.46c-1.87,1.88-3.35,4.02-4.46,6.42c-1.1,2.4-1.74,4.91-1.91,7.53
					H686.13z"/>
				<path class="st4" d="M762.52,560.54c-2.55,3.93-5.86,6.9-9.93,8.91c-4.07,2.01-8.28,3.01-12.6,3.01
					c-4.67,0-8.89-0.83-12.67-2.49c-3.78-1.66-7-3.93-9.68-6.81c-2.67-2.88-4.75-6.29-6.24-10.22c-1.49-3.93-2.23-8.17-2.23-12.71
					c0-4.54,0.74-8.78,2.23-12.71c1.48-3.93,3.56-7.34,6.24-10.22c2.67-2.88,5.9-5.15,9.68-6.81c3.78-1.66,8-2.49,12.67-2.49
					c4.33,0,8.53,1.03,12.6,3.08c4.07,2.05,7.38,5.09,9.93,9.11h0.25l0-42.27h8.66l0,92.98h-8.66v-10.35H762.52z M718.34,540.23
					c0,3.41,0.51,6.62,1.53,9.63c1.02,3.01,2.48,5.63,4.39,7.86c1.91,2.23,4.27,3.98,7.07,5.24c2.8,1.27,5.98,1.9,9.55,1.9
					c3.31,0,6.37-0.63,9.17-1.9c2.8-1.26,5.22-2.99,7.26-5.18c2.04-2.18,3.63-4.78,4.77-7.8c1.15-3.01,1.72-6.27,1.72-9.76
					c0-3.49-0.57-6.75-1.72-9.76c-1.15-3.01-2.74-5.63-4.77-7.86c-2.04-2.23-4.46-3.98-7.26-5.24c-2.8-1.26-5.86-1.9-9.17-1.9
					c-3.56,0-6.75,0.66-9.55,1.97c-2.8,1.31-5.16,3.08-7.07,5.31s-3.37,4.85-4.39,7.86C718.85,533.61,718.34,536.82,718.34,540.23z"
					/>
				<path class="st4" d="M805.17,485.98c0,1.83-0.64,3.34-1.91,4.52c-1.27,1.18-2.67,1.77-4.2,1.77c-1.53,0-2.93-0.59-4.2-1.77
					c-1.27-1.18-1.91-2.69-1.91-4.52c0-1.83,0.64-3.34,1.91-4.52c1.27-1.18,2.67-1.77,4.2-1.77c1.53,0,2.93,0.59,4.2,1.77
					C804.53,482.64,805.17,484.14,805.17,485.98z M803.38,570.89h-8.66v-61.32h8.66V570.89z"/>
				<path class="st4" d="M869.34,523.58c-1.44-2.36-3.55-4.3-6.3-5.83c-2.76-1.53-5.75-2.29-8.98-2.29c-3.48,0-6.62,0.64-9.42,1.9
					c-2.8,1.27-5.2,3.01-7.19,5.24c-2,2.23-3.52,4.85-4.58,7.86c-1.06,3.01-1.59,6.27-1.59,9.76c0,3.49,0.53,6.73,1.59,9.7
					c1.06,2.97,2.57,5.57,4.52,7.8c1.95,2.23,4.33,3.98,7.13,5.24c2.8,1.27,5.94,1.9,9.42,1.9c3.82,0,7.04-0.74,9.68-2.23
					c2.63-1.48,4.79-3.41,6.49-5.77l6.49,4.98c-2.55,3.23-5.66,5.81-9.36,7.73c-3.69,1.92-8.13,2.88-13.3,2.88
					c-4.84,0-9.21-0.81-13.11-2.42c-3.91-1.61-7.24-3.86-9.99-6.75c-2.76-2.88-4.9-6.29-6.43-10.22c-1.53-3.93-2.29-8.21-2.29-12.84
					c0-4.63,0.76-8.91,2.29-12.84c1.53-3.93,3.67-7.34,6.43-10.22c2.76-2.88,6.09-5.13,9.99-6.75c3.9-1.62,8.28-2.42,13.11-2.42
					c3.99,0,8.04,0.9,12.16,2.69c4.12,1.79,7.45,4.43,9.99,7.93L869.34,523.58z"/>
				<path class="st4" d="M927.65,531.2c0-5.29-1.36-9.24-4.08-11.84c-2.72-2.6-6.66-3.9-11.84-3.9c-3.57,0-6.88,0.66-9.93,1.97
					c-3.06,1.31-5.65,3.06-7.77,5.24l-4.84-5.9c2.46-2.53,5.71-4.63,9.74-6.29c4.03-1.66,8.59-2.49,13.69-2.49
					c3.22,0,6.24,0.46,9.04,1.38c2.8,0.92,5.26,2.29,7.38,4.13c2.12,1.83,3.78,4.15,4.96,6.95c1.19,2.8,1.78,6.07,1.78,9.83v26.86
					c0,2.36,0.08,4.81,0.25,7.34c0.17,2.53,0.42,4.68,0.76,6.42h-7.77c-0.26-1.48-0.47-3.1-0.64-4.85
					c-0.17-1.75-0.26-3.45-0.26-5.11h-0.25c-2.72,4.11-5.79,7.06-9.23,8.85c-3.44,1.79-7.57,2.69-12.41,2.69
					c-2.29,0-4.65-0.33-7.07-0.98c-2.42-0.66-4.63-1.73-6.62-3.22c-2-1.49-3.65-3.42-4.97-5.79c-1.32-2.37-1.97-5.26-1.97-8.68
					c0-4.73,1.17-8.48,3.5-11.24c2.33-2.76,5.45-4.82,9.36-6.18c3.9-1.36,8.38-2.23,13.43-2.63c5.05-0.39,10.29-0.59,15.72-0.59
					V531.2z M925.1,540.23c-3.57,0-7.15,0.15-10.76,0.46c-3.61,0.31-6.88,0.92-9.8,1.83c-2.93,0.92-5.33,2.25-7.19,4
					c-1.87,1.75-2.8,4.06-2.8,6.94c0,2.18,0.4,4.02,1.21,5.5c0.8,1.49,1.89,2.69,3.25,3.6c1.36,0.92,2.86,1.57,4.52,1.97
					c1.66,0.39,3.33,0.59,5.03,0.59c3.05,0,5.77-0.55,8.15-1.64c2.38-1.09,4.37-2.58,5.98-4.46c1.61-1.88,2.84-4.04,3.69-6.49
					c0.85-2.44,1.27-5.02,1.27-7.73v-4.59H925.1z"/>
				<path class="st4" d="M966.99,570.89h-8.66l0-92.98h8.66L966.99,570.89z"/>
			</g>
		</g>
		<path class="st4" d="M506.79,50.77c-0.01-0.17-0.02-0.35-0.04-0.53c-6.92-33.82-3.24-38.58-10.44,4.74
			c-7.96,41.95-17.04,76.5-17.04,76.5c-8.47,32.92-17.88,58.06-28.36,83.45c-7.44,17.73-15.54,35.6-25.71,55.94
			c-2.37,0.15-4.71,0.36-7,0.64c-5.39,0.7-10.61,1.75-15.72,3l0.01-0.01c79.66-150.36,72.3-237.62,72.3-237.62
			c-47.47,154.67-100.04,236.1-109.51,250.05c-15.99,6.47-31.38,13.98-46.5,21.89c-11.55,6.24-22.95,12.69-34.11,19.51
			c-17.42,8.89-30.93,16.94-30.57,19.01c2.65-1.18,5.61-2.54,8.81-4.02c2.57-1.1,5.13-2.2,7.7-3.3c21.75-7.3,43.3-14.56,64.94-21.09
			c2.75-0.83,5.5-1.65,8.25-2.46c-1.18,1.4-2.35,2.83-3.55,4.19c-12.43,14.01-26,25.38-40.49,32.59
			c-14.49,7.25-29.7,9.83-44.75,7.28c-15.15-2.59-31.34-9.61-47.99-17.66c-24.35-13.07-45.97-27.51-67.81-39.94
			c-10.96-6.23-21.92-12.1-33.92-16.75c-6.02-2.29-12.34-4.29-19.35-5.42c-6.95-1.07-14.98-1.34-23.34,1.54
			c-8.39,2.74-15.7,9.42-19.6,15.96c-4.03,6.41-6.39,13.06-7.9,19.64c-2.91,13.2-2.44,25.99-0.51,38.27
			c4.06,24.56,14.11,47.34,27.74,68.93c5.48,8.92,7.68,11.86,10.04,15.25c2.43,3.33,5.05,7.14,12.84,16.59
			c11.61,13.41,18.65,20.16,26.53,27.61c7.96,7.33,16.8,15.42,34.32,28.51c12.71,9.22,24.59,16.81,35.71,23.38
			c20.77,13.08,42.54,24.36,65.2,33.63c-32.12-31.29-64.14-61.02-92.66-93.04c-14.23-15.98-27.73-32.32-39.44-49.38
			c-5.82-8.53-11.35-17.13-15.96-25.98c-4.74-8.74-8.73-17.67-11.37-26.42c-2.79-8.65-4.07-17.29-3.32-23.99
			c0.31-3.35,1.08-6.15,2.22-8.36c1.15-2.23,2.62-3.98,4.78-5.68c2.17-1.71,4.36-2.78,7.24-3.4c2.86-0.58,6.42-0.8,10.47-0.3
			c8.12,0.98,17.63,4.11,27.13,7.97c19.17,7.82,38.89,18.26,59.53,27.09c10.35,4.41,20.91,8.58,31.8,11.84
			c1.19,0.37,2.39,0.72,3.59,1.06c2.61,0.89,5.24,1.74,7.94,2.5l3.29,0.87l3.28,0.78c2.41,0.5,4.63,0.94,6.99,1.27
			c4.67,0.68,9.41,1.01,14.15,0.98c19.13-0.02,37.59-6.59,52.87-16.1c15.42-9.52,28.3-21.65,39.77-34.67
			c8.54-9.82,16.34-20.17,23.64-30.94c6.07-1.34,12.13-2.54,18.16-3.52c2.75-0.43,5.51-0.82,8.25-1.15
			c-1.52,2.86-4.07,7.56-7.23,13.03c-25.09,46.03-49.95,85.75-71.77,120.53c-11.83,17.52-23.55,34.31-35.03,50.72
			c-11.43,16.47-22.76,32.27-33.15,49c-2.58,4.24-5.09,8.5-7.39,13.37c-1.13,2.48-2.26,5-3.06,8.65c-0.27,1.94-0.91,4.1,0.34,8.13
			c0.18,0.51,0.39,1.01,0.61,1.48c0.36,0.7,0.85,1.45,1.38,2.09c0.21,0.27,0.68,0.78,0.71,0.81l0.16,0.15l0.16,0.15l0.08,0.08
			c1.51,1.31,0.67,0.55,1.12,0.92c2.45,1.71,4.78,2.03,6.36,2.11c3.23,0.06,4.95-0.58,6.62-1.1c1.61-0.55,2.97-1.16,4.25-1.79
			c2.54-1.26,4.76-2.59,6.91-3.97c2.26-1.46,4.41-2.96,6.5-4.49c2.67-1.46,5.29-2.99,7.9-4.54c10.09-6.06,19.63-12.9,28.95-20.02
			c18.58-14.29,35.97-30.06,52.4-46.82c32.62-33.68,61.83-71.39,83.15-114.55c5.25-10.89,9.92-21.82,13.97-33.7
			c1.95-6.18,3.63-12.66,4.38-19.86c0.67-7.13,0.69-15.38-2.91-24.04c-1.8-4.29-4.57-8.44-8.01-11.77
			c-2.44-2.36-5.13-4.26-7.86-5.78c-1.53-1.45-3.14-2.7-4.8-3.75c2.34-4.77,4.64-9.57,6.89-14.39c0.06-0.12,0.11-0.23,0.17-0.35
			c0.05-0.11,0.1-0.22,0.15-0.33c11.75-25.23,22.17-51.1,30.48-77.77c7.15-22.88,12.63-46.36,15.49-70.19
			C509.64,92.25,510.22,69.64,506.79,50.77z M279.73,539.8c0.97-1.38,1.95-2.73,2.96-4.12l10.83-14.13l21.81-28.2
			c14.41-18.91,28.66-37.98,42.36-57.46c27.54-38.85,53.27-79.09,76.41-120.89c2.26-4.14,4.49-8.31,6.7-12.49
			c1.14,0.38,2.18,0.79,3.06,1.24c1.86,1.03,2.85,1.92,3.52,3c-0.27,3.49-1.06,7.32-2.18,11.16c-0.73,2.46-1.52,4.96-2.44,7.44
			c-0.97,2.62-1.95,5.2-2.99,7.78c-2.08,5.17-4.3,10.3-6.66,15.37c-18.82,40.72-44.29,78.74-72.04,114.89
			c-11.47,14.67-23.36,29.1-35.81,43.04c-4.34,4.29-8.71,8.54-13.18,12.71c-7.34,6.85-14.9,13.56-22.78,20
			c-3.94,3.2-7.97,6.35-12.09,9.28c-1.72,1.21-3.49,2.41-5.26,3.53c0.02-0.04,0.04-0.08,0.06-0.11
			C274.37,547.78,277.01,543.76,279.73,539.8z M263.35,556.27c-0.01,0-0.04,0.01-0.06,0.01
			C263.12,556.35,262.99,556.25,263.35,556.27z"/>
	</g>
</g>
<g id="Mono_Black" class="st2">
	<g class="st3">
		<g>
			<g>
				<path class="st6" d="M528.38,270.39h57.88c6.32,0,12.65,0.71,18.98,2.14c6.32,1.42,11.98,3.79,16.96,7.12
					c4.98,3.32,9.01,7.67,12.1,13.05c3.08,5.38,4.63,12.1,4.63,20.16c0,9.33-2.69,17.16-8.07,23.48
					c-5.38,6.33-12.49,10.67-21.35,13.05v0.47c5.37,0.63,10.36,2.02,14.94,4.15c4.58,2.14,8.54,4.95,11.86,8.42
					c3.32,3.48,5.89,7.59,7.71,12.34c1.82,4.74,2.73,10.04,2.73,15.89c0,8.07-1.66,15.1-4.98,21.11
					c-3.32,6.01-7.83,10.95-13.52,14.83c-5.69,3.88-12.38,6.8-20.04,8.78c-7.67,1.98-15.86,2.97-24.55,2.97h-55.27V270.39z
					 M551.86,341.31h30.6c4.43,0,8.66-0.51,12.69-1.54c4.03-1.03,7.55-2.61,10.56-4.75c3-2.13,5.37-4.82,7.12-8.07
					c1.74-3.24,2.61-7.15,2.61-11.74c0-9.01-3.32-15.46-9.96-19.33c-6.64-3.87-15.58-5.81-26.81-5.81h-26.8V341.31z M551.86,418.41
					h29.42c4.9,0,9.84-0.43,14.83-1.3c4.98-0.87,9.49-2.41,13.52-4.63c4.03-2.21,7.27-5.18,9.73-8.89
					c2.45-3.71,3.68-8.42,3.68-14.12c0-9.96-3.4-17.16-10.2-21.59c-6.8-4.43-16.61-6.64-29.42-6.64h-31.55V418.41z"/>
				<path class="st6" d="M824.66,412.24c-6.64,9.01-15.26,16.33-25.86,21.94c-10.6,5.61-23.33,8.42-38.19,8.42
					c-12.81,0-24.63-2.18-35.46-6.52c-10.83-4.35-20.16-10.44-27.99-18.26c-7.83-7.83-13.96-17.16-18.38-27.99
					c-4.43-10.83-6.64-22.73-6.64-35.7c0-13.13,2.25-25.11,6.76-35.94c4.51-10.83,10.75-20.08,18.74-27.76
					c7.98-7.67,17.44-13.64,28.35-17.91c10.91-4.27,22.77-6.41,35.58-6.41c5.69,0,11.47,0.56,17.32,1.66
					c5.85,1.11,11.46,2.77,16.84,4.98c5.37,2.22,10.28,4.95,14.71,8.18c4.43,3.24,8.22,7,11.39,11.27l-18.5,14.23
					c-4.11-5.69-9.93-10.4-17.44-14.11c-7.51-3.71-15.62-5.57-24.32-5.57c-9.81,0-18.62,1.78-26.45,5.34
					c-7.83,3.56-14.51,8.42-20.04,14.59c-5.54,6.17-9.81,13.32-12.81,21.47c-3.01,8.15-4.51,16.8-4.51,25.98
					c0,9.49,1.46,18.35,4.39,26.57c2.92,8.22,7.12,15.38,12.57,21.47c5.46,6.09,12.1,10.87,19.93,14.35
					c7.83,3.48,16.56,5.22,26.21,5.22c9.49,0,18.11-1.9,25.86-5.69c7.75-3.79,14.15-9.33,19.21-16.6L824.66,412.24z"/>
				<path class="st6" d="M848.62,270.39h57.88c6.32,0,12.65,0.71,18.98,2.14c6.32,1.42,11.98,3.79,16.96,7.12
					c4.98,3.32,9.01,7.67,12.1,13.05c3.08,5.38,4.63,12.1,4.63,20.16c0,9.33-2.69,17.16-8.07,23.48
					c-5.38,6.33-12.49,10.67-21.35,13.05v0.47c5.37,0.63,10.36,2.02,14.94,4.15c4.58,2.14,8.54,4.95,11.86,8.42
					c3.32,3.48,5.89,7.59,7.71,12.34c1.82,4.74,2.73,10.04,2.73,15.89c0,8.07-1.66,15.1-4.98,21.11
					c-3.32,6.01-7.83,10.95-13.52,14.83c-5.69,3.88-12.38,6.8-20.04,8.78c-7.67,1.98-15.86,2.97-24.55,2.97h-55.27V270.39z
					 M872.1,341.31h30.6c4.43,0,8.66-0.51,12.69-1.54c4.03-1.03,7.55-2.61,10.56-4.75c3-2.13,5.37-4.82,7.12-8.07
					c1.74-3.24,2.61-7.15,2.61-11.74c0-9.01-3.32-15.46-9.96-19.33c-6.64-3.87-15.58-5.81-26.81-5.81h-26.8V341.31z M872.1,418.41
					h29.42c4.9,0,9.84-0.43,14.83-1.3c4.98-0.87,9.49-2.41,13.52-4.63c4.03-2.21,7.27-5.18,9.73-8.89
					c2.45-3.71,3.68-8.42,3.68-14.12c0-9.96-3.4-17.16-10.2-21.59c-6.8-4.43-16.61-6.64-29.42-6.64H872.1V418.41z"/>
			</g>
			<g>
				<path class="st6" d="M572.94,554.9h0.13l30.17-76.79h14v92.77h-9.17V490.3h-0.26l-32.59,80.59h-4.84L537.8,490.3h-0.25v80.59
					h-9.17v-92.77h14.01L572.94,554.9z"/>
				<path class="st6" d="M694.91,538.39c0,0.61,0,1.27,0,1.96c0,0.7-0.04,1.44-0.13,2.23h-49.4c0.08,3.06,0.68,5.94,1.78,8.65
					c1.1,2.71,2.63,5.07,4.58,7.08c1.95,2.01,4.24,3.6,6.87,4.78c2.63,1.18,5.47,1.77,8.53,1.77c4.5,0,8.38-1.07,11.65-3.21
					c3.27-2.14,5.75-4.61,7.45-7.4l6.49,5.24c-3.56,4.63-7.49,7.95-11.78,9.96c-4.29,2.01-8.89,3.01-13.81,3.01
					c-4.41,0-8.51-0.81-12.29-2.42c-3.78-1.61-7.02-3.86-9.74-6.75c-2.72-2.88-4.86-6.29-6.43-10.22
					c-1.57-3.93-2.35-8.21-2.35-12.84c0-4.63,0.76-8.91,2.29-12.84c1.53-3.93,3.65-7.34,6.37-10.22c2.71-2.88,5.9-5.13,9.55-6.75
					c3.65-1.62,7.6-2.42,11.84-2.42c4.67,0,8.78,0.81,12.35,2.42c3.57,1.62,6.53,3.8,8.91,6.55c2.38,2.75,4.18,5.96,5.41,9.63
					C694.29,530.27,694.91,534.2,694.91,538.39z M686.13,535.51c-0.25-5.77-2.06-10.55-5.41-14.35c-3.35-3.8-8.13-5.7-14.32-5.7
					c-2.89,0-5.56,0.55-8.02,1.64c-2.46,1.09-4.63,2.58-6.49,4.46c-1.87,1.88-3.35,4.02-4.46,6.42c-1.1,2.4-1.74,4.91-1.91,7.53
					H686.13z"/>
				<path class="st6" d="M762.52,560.54c-2.55,3.93-5.86,6.9-9.93,8.91c-4.07,2.01-8.28,3.01-12.6,3.01
					c-4.67,0-8.89-0.83-12.67-2.49c-3.78-1.66-7-3.93-9.68-6.81c-2.67-2.88-4.75-6.29-6.24-10.22c-1.49-3.93-2.23-8.17-2.23-12.71
					c0-4.54,0.74-8.78,2.23-12.71c1.48-3.93,3.56-7.34,6.24-10.22c2.67-2.88,5.9-5.15,9.68-6.81c3.78-1.66,8-2.49,12.67-2.49
					c4.33,0,8.53,1.03,12.6,3.08c4.07,2.05,7.38,5.09,9.93,9.11h0.25l0-42.27h8.66l0,92.98h-8.66v-10.35H762.52z M718.34,540.23
					c0,3.41,0.51,6.62,1.53,9.63c1.02,3.01,2.48,5.63,4.39,7.86c1.91,2.23,4.27,3.98,7.07,5.24c2.8,1.27,5.98,1.9,9.55,1.9
					c3.31,0,6.37-0.63,9.17-1.9c2.8-1.26,5.22-2.99,7.26-5.18c2.04-2.18,3.63-4.78,4.77-7.8c1.15-3.01,1.72-6.27,1.72-9.76
					c0-3.49-0.57-6.75-1.72-9.76c-1.15-3.01-2.74-5.63-4.77-7.86c-2.04-2.23-4.46-3.98-7.26-5.24c-2.8-1.26-5.86-1.9-9.17-1.9
					c-3.56,0-6.75,0.66-9.55,1.97c-2.8,1.31-5.16,3.08-7.07,5.31s-3.37,4.85-4.39,7.86C718.85,533.61,718.34,536.82,718.34,540.23z"
					/>
				<path class="st6" d="M805.17,485.98c0,1.83-0.64,3.34-1.91,4.52c-1.27,1.18-2.67,1.77-4.2,1.77c-1.53,0-2.93-0.59-4.2-1.77
					c-1.27-1.18-1.91-2.69-1.91-4.52c0-1.83,0.64-3.34,1.91-4.52c1.27-1.18,2.67-1.77,4.2-1.77c1.53,0,2.93,0.59,4.2,1.77
					C804.53,482.64,805.17,484.14,805.17,485.98z M803.38,570.89h-8.66v-61.32h8.66V570.89z"/>
				<path class="st6" d="M869.34,523.58c-1.44-2.36-3.55-4.3-6.3-5.83c-2.76-1.53-5.75-2.29-8.98-2.29c-3.48,0-6.62,0.64-9.42,1.9
					c-2.8,1.27-5.2,3.01-7.19,5.24c-2,2.23-3.52,4.85-4.58,7.86c-1.06,3.01-1.59,6.27-1.59,9.76c0,3.49,0.53,6.73,1.59,9.7
					c1.06,2.97,2.57,5.57,4.52,7.8c1.95,2.23,4.33,3.98,7.13,5.24c2.8,1.27,5.94,1.9,9.42,1.9c3.82,0,7.04-0.74,9.68-2.23
					c2.63-1.48,4.79-3.41,6.49-5.77l6.49,4.98c-2.55,3.23-5.66,5.81-9.36,7.73c-3.69,1.92-8.13,2.88-13.3,2.88
					c-4.84,0-9.21-0.81-13.11-2.42c-3.91-1.61-7.24-3.86-9.99-6.75c-2.76-2.88-4.9-6.29-6.43-10.22c-1.53-3.93-2.29-8.21-2.29-12.84
					c0-4.63,0.76-8.91,2.29-12.84c1.53-3.93,3.67-7.34,6.43-10.22c2.76-2.88,6.09-5.13,9.99-6.75c3.9-1.62,8.28-2.42,13.11-2.42
					c3.99,0,8.04,0.9,12.16,2.69c4.12,1.79,7.45,4.43,9.99,7.93L869.34,523.58z"/>
				<path class="st6" d="M927.65,531.2c0-5.29-1.36-9.24-4.08-11.84c-2.72-2.6-6.66-3.9-11.84-3.9c-3.57,0-6.88,0.66-9.93,1.97
					c-3.06,1.31-5.65,3.06-7.77,5.24l-4.84-5.9c2.46-2.53,5.71-4.63,9.74-6.29c4.03-1.66,8.59-2.49,13.69-2.49
					c3.22,0,6.24,0.46,9.04,1.38c2.8,0.92,5.26,2.29,7.38,4.13c2.12,1.83,3.78,4.15,4.96,6.95c1.19,2.8,1.78,6.07,1.78,9.83v26.86
					c0,2.36,0.08,4.81,0.25,7.34c0.17,2.53,0.42,4.68,0.76,6.42h-7.77c-0.26-1.48-0.47-3.1-0.64-4.85
					c-0.17-1.75-0.26-3.45-0.26-5.11h-0.25c-2.72,4.11-5.79,7.06-9.23,8.85c-3.44,1.79-7.57,2.69-12.41,2.69
					c-2.29,0-4.65-0.33-7.07-0.98c-2.42-0.66-4.63-1.73-6.62-3.22c-2-1.49-3.65-3.42-4.97-5.79c-1.32-2.37-1.97-5.26-1.97-8.68
					c0-4.73,1.17-8.48,3.5-11.24c2.33-2.76,5.45-4.82,9.36-6.18c3.9-1.36,8.38-2.23,13.43-2.63c5.05-0.39,10.29-0.59,15.72-0.59
					V531.2z M925.1,540.23c-3.57,0-7.15,0.15-10.76,0.46c-3.61,0.31-6.88,0.92-9.8,1.83c-2.93,0.92-5.33,2.25-7.19,4
					c-1.87,1.75-2.8,4.06-2.8,6.94c0,2.18,0.4,4.02,1.21,5.5c0.8,1.49,1.89,2.69,3.25,3.6c1.36,0.92,2.86,1.57,4.52,1.97
					c1.66,0.39,3.33,0.59,5.03,0.59c3.05,0,5.77-0.55,8.15-1.64c2.38-1.09,4.37-2.58,5.98-4.46c1.61-1.88,2.84-4.04,3.69-6.49
					c0.85-2.44,1.27-5.02,1.27-7.73v-4.59H925.1z"/>
				<path class="st6" d="M966.99,570.89h-8.66l0-92.98h8.66L966.99,570.89z"/>
			</g>
		</g>
		<path class="st6" d="M506.79,50.77c-0.01-0.17-0.02-0.35-0.04-0.53c-6.92-33.82-3.24-38.58-10.44,4.74
			c-7.96,41.95-17.04,76.5-17.04,76.5c-8.47,32.92-17.88,58.06-28.36,83.45c-7.44,17.73-15.54,35.6-25.71,55.94
			c-2.37,0.15-4.71,0.36-7,0.64c-5.39,0.7-10.61,1.75-15.72,3l0.01-0.01c79.66-150.36,72.3-237.62,72.3-237.62
			c-47.47,154.67-100.04,236.1-109.51,250.05c-15.99,6.47-31.38,13.98-46.5,21.89c-11.55,6.24-22.95,12.69-34.11,19.51
			c-17.42,8.89-30.93,16.94-30.57,19.01c2.65-1.18,5.61-2.54,8.81-4.02c2.57-1.1,5.13-2.2,7.7-3.3c21.75-7.3,43.3-14.56,64.94-21.09
			c2.75-0.83,5.5-1.65,8.25-2.46c-1.18,1.4-2.35,2.83-3.55,4.19c-12.43,14.01-26,25.38-40.49,32.59
			c-14.49,7.25-29.7,9.83-44.75,7.28c-15.15-2.59-31.34-9.61-47.99-17.66c-24.35-13.07-45.97-27.51-67.81-39.94
			c-10.96-6.23-21.92-12.1-33.92-16.75c-6.02-2.29-12.34-4.29-19.35-5.42c-6.95-1.07-14.98-1.34-23.34,1.54
			c-8.39,2.74-15.7,9.42-19.6,15.96c-4.03,6.41-6.39,13.06-7.9,19.64c-2.91,13.2-2.44,25.99-0.51,38.27
			c4.06,24.56,14.11,47.34,27.74,68.93c5.48,8.92,7.68,11.86,10.04,15.25c2.43,3.33,5.05,7.14,12.84,16.59
			c11.61,13.41,18.65,20.16,26.53,27.61c7.96,7.33,16.8,15.42,34.32,28.51c12.71,9.22,24.59,16.81,35.71,23.38
			c20.77,13.08,42.54,24.36,65.2,33.63c-32.12-31.29-64.14-61.02-92.66-93.04c-14.23-15.98-27.73-32.32-39.44-49.38
			c-5.82-8.53-11.35-17.13-15.96-25.98c-4.74-8.74-8.73-17.67-11.37-26.42c-2.79-8.65-4.07-17.29-3.32-23.99
			c0.31-3.35,1.08-6.15,2.22-8.36c1.15-2.23,2.62-3.98,4.78-5.68c2.17-1.71,4.36-2.78,7.24-3.4c2.86-0.58,6.42-0.8,10.47-0.3
			c8.12,0.98,17.63,4.11,27.13,7.97c19.17,7.82,38.89,18.26,59.53,27.09c10.35,4.41,20.91,8.58,31.8,11.84
			c1.19,0.37,2.39,0.72,3.59,1.06c2.61,0.89,5.24,1.74,7.94,2.5l3.29,0.87l3.28,0.78c2.41,0.5,4.63,0.94,6.99,1.27
			c4.67,0.68,9.41,1.01,14.15,0.98c19.13-0.02,37.59-6.59,52.87-16.1c15.42-9.52,28.3-21.65,39.77-34.67
			c8.54-9.82,16.34-20.17,23.64-30.94c6.07-1.34,12.13-2.54,18.16-3.52c2.75-0.43,5.51-0.82,8.25-1.15
			c-1.52,2.86-4.07,7.56-7.23,13.03c-25.09,46.03-49.95,85.75-71.77,120.53c-11.83,17.52-23.55,34.31-35.03,50.72
			c-11.43,16.47-22.76,32.27-33.15,49c-2.58,4.24-5.09,8.5-7.39,13.37c-1.13,2.48-2.26,5-3.06,8.65c-0.27,1.94-0.91,4.1,0.34,8.13
			c0.18,0.51,0.39,1.01,0.61,1.48c0.36,0.7,0.85,1.45,1.38,2.09c0.21,0.27,0.68,0.78,0.71,0.81l0.16,0.15l0.16,0.15l0.08,0.08
			c1.51,1.31,0.67,0.55,1.12,0.92c2.45,1.71,4.78,2.03,6.36,2.11c3.23,0.06,4.95-0.58,6.62-1.1c1.61-0.55,2.97-1.16,4.25-1.79
			c2.54-1.26,4.76-2.59,6.91-3.97c2.26-1.46,4.41-2.96,6.5-4.49c2.67-1.46,5.29-2.99,7.9-4.54c10.09-6.06,19.63-12.9,28.95-20.02
			c18.58-14.29,35.97-30.06,52.4-46.82c32.62-33.68,61.83-71.39,83.15-114.55c5.25-10.89,9.92-21.82,13.97-33.7
			c1.95-6.18,3.63-12.66,4.38-19.86c0.67-7.13,0.69-15.38-2.91-24.04c-1.8-4.29-4.57-8.44-8.01-11.77
			c-2.44-2.36-5.13-4.26-7.86-5.78c-1.53-1.45-3.14-2.7-4.8-3.75c2.34-4.77,4.64-9.57,6.89-14.39c0.06-0.12,0.11-0.23,0.17-0.35
			c0.05-0.11,0.1-0.22,0.15-0.33c11.75-25.23,22.17-51.1,30.48-77.77c7.15-22.88,12.63-46.36,15.49-70.19
			C509.64,92.25,510.22,69.64,506.79,50.77z M279.73,539.8c0.97-1.38,1.95-2.73,2.96-4.12l10.83-14.13l21.81-28.2
			c14.41-18.91,28.66-37.98,42.36-57.46c27.54-38.85,53.27-79.09,76.41-120.89c2.26-4.14,4.49-8.31,6.7-12.49
			c1.14,0.38,2.18,0.79,3.06,1.24c1.86,1.03,2.85,1.92,3.52,3c-0.27,3.49-1.06,7.32-2.18,11.16c-0.73,2.46-1.52,4.96-2.44,7.44
			c-0.97,2.62-1.95,5.2-2.99,7.78c-2.08,5.17-4.3,10.3-6.66,15.37c-18.82,40.72-44.29,78.74-72.04,114.89
			c-11.47,14.67-23.36,29.1-35.81,43.04c-4.34,4.29-8.71,8.54-13.18,12.71c-7.34,6.85-14.9,13.56-22.78,20
			c-3.94,3.2-7.97,6.35-12.09,9.28c-1.72,1.21-3.49,2.41-5.26,3.53c0.02-0.04,0.04-0.08,0.06-0.11
			C274.37,547.78,277.01,543.76,279.73,539.8z M263.35,556.27c-0.01,0-0.04,0.01-0.06,0.01
			C263.12,556.35,262.99,556.25,263.35,556.27z"/>
	</g>
</g>
</svg>
