<svg
   xmlns:svg="http://www.w3.org/2000/svg"
   xmlns="http://www.w3.org/2000/svg"
   version="1.1"
   viewBox="55 55 752 235"
>
  <defs>
    <style>
      path {
        fill: black;
      }
      /*
      @media (prefers-color-scheme: dark) {
        path {
          fill: white;
        }
      }
      */
      #bluecircle {
        fill: #578ad6;
      }
    </style>
  </defs>
  <path id="s1"
    d="m 101,153 c 3.2,3.34 4.9,7.8 4.9,13.4 0,7.3 -2.7,13.4 -8.2,18.2 -5.2,4.6 -11.5,7 -18.9,7 -8.9,0 -16,-3.2 -21.4,-9.5 h 0 c -1.236933,-1.39333 -1.8552,-3.144 -1.8552,-5.25866 0,-1.13334 0.219867,-2.21467 0.6584,-3.24667 0.438,-1.03067 1.016667,-1.90667 1.7396,-2.63067 0.721334,-0.72 1.583867,-1.3 2.59,-1.73866 1.004267,-0.43734 2.099067,-0.656 3.286,-0.656 1.340133,0 2.590667,0.296 3.749467,0.888 1.159866,0.59333 2.126,1.40533 2.899466,2.436 v -0.0787 c 0.4636,0.67067 0.850534,1.10933 1.158934,1.31467 1.032266,0.92933 2.152533,1.65066 3.363466,2.16533 1.211467,0.516 2.564667,0.77467 4.059467,0.77467 5.876,0 8.815599,-2.68 8.815599,-8.04267 0,-3.092 -2.243333,-5.95333 -6.728133,-8.58267 -0.876533,-0.41066 -1.752666,-0.836 -2.628133,-1.27333 -0.8776,-0.43733 -1.752667,-0.89067 -2.628667,-1.35467 -0.877066,-0.412 -1.740133,-0.82266 -2.590666,-1.236 -0.850533,-0.41333 -1.739067,-0.824 -2.666667,-1.23733 -5.155733,-2.52667 -8.687466,-5.02667 -10.592666,-7.5 -2.630267,-3.09333 -3.9432,-7.11333 -3.9432,-12.06133 0,-6.54533 2.214533,-11.95867 6.648933,-16.23733 4.5864,-4.22534 10.1276,-6.34 16.6224,-6.34 2.887466,0 5.5672,0.452 8.041599,1.352 2.474,0.90133 4.690134,2.256 6.65,4.06 0.9276,0.72266 1.673467,1.636 2.242267,2.74266 0.5672,1.10934 0.851067,2.30934 0.851067,3.59734 0,1.18533 -0.2204,2.28 -0.6584,3.288 -0.437467,1.004 -1.018267,1.868 -1.7396,2.588 -0.7224,0.72266 -1.5844,1.30266 -2.590534,1.74 -1.004266,0.43866 -2.0756,0.65733 -3.208933,0.65733 -1.1328,0 -2.190133,-0.19467 -3.168666,-0.58 -0.980267,-0.38533 -1.831334,-0.94 -2.550534,-1.66267 -1.547466,-1.392 -3.275066,-2.088 -5.181333,-2.088 -1.495733,0 -2.811467,0.51734 -3.944267,1.54667 -1.081199,1.03067 -1.622933,2.372 -1.622933,4.02 0,2.992 3.298,5.852 9.896933,8.584 4.638533,1.96 8.4792,3.86533 11.5192,5.72133 3.0412,1.856 5.387067,3.608 7.037072,5.256" />
  <path id="e1"
    d="m 131.76253,93.042673 c -0.10413,0.256 -0.18133,0.577333 -0.23187,0.965333 -0.0515,0.385333 0,0.761333 0.1548,1.121333 0.15467,0.361334 0.45,0.682667 0.888,0.965334 0.43854,0.285333 1.12254,0.425333 2.05054,0.425333 h 27.524 c 0.72133,-0.05067 1.264,-0.218667 1.62533,-0.502667 0.35867,-0.282666 0.60533,-0.590666 0.73333,-0.926666 0.128,-0.336 0.16667,-0.670667 0.116,-1.006667 -0.052,-0.334667 -0.104,-0.630667 -0.15333,-0.889333 -2.888,-7.113333 -8.37867,-10.668 -16.46933,-10.668 -2.268,0 -4.25334,0.334667 -5.95467,1.004 -1.85467,0.618667 -3.556,1.546667 -5.10267,2.784 -0.77333,0.618667 -1.48133,1.276 -2.124,1.972 -0.64666,0.694666 -1.22666,1.482666 -1.74106,2.357333 -0.25934,0.413333 -0.4916,0.812 -0.69694,1.198667 -0.20573,0.386666 -0.414,0.785333 -0.61813,1.2 z m 45.23213,41.442667 c -2.47466,2.67866 -5.208,4.972 -8.196,6.88 -2.888,1.7 -6.00533,2.988 -9.356,3.86533 -3.3,0.824 -6.93333,1.23733 -10.90266,1.23733 -11.288,0 -20.33267,-3.63333 -27.13694,-10.90266 -6.80466,-7.16267 -10.20573,-16.80267 -10.20573,-28.91467 0,-11.909331 3.29747,-21.54533 9.89587,-28.918664 6.5964,-7.266666 15.43613,-10.901333 26.5188,-10.901333 5.61733,0 10.59333,0.862667 14.924,2.590667 4.32933,1.726667 8.11733,4.394667 11.36533,8.001333 6.44267,7.012 9.66533,16.7 9.66533,29.070667 -0.104,1.188 -0.58133,2.192 -1.43066,3.016 -0.85067,0.82667 -1.87067,1.23733 -3.05467,1.23733 H 133.464 c -0.2072,0 -0.5416,0.028 -1.0056,0.0773 -0.4636,0.052 -0.91574,0.19333 -1.35214,0.42533 -0.43906,0.232 -0.78653,0.59333 -1.04373,1.08267 -0.25987,0.492 -0.30987,1.17333 -0.15573,2.04933 0.82386,4.48267 2.6552,8.17067 5.4892,11.056 3.608,3.608 8.196,5.412 13.764,5.412 4.32933,0 7.936,-1.02933 10.824,-3.09333 0.77333,-0.56667 1.584,-1.30134 2.43466,-2.20267 0.852,-0.90133 1.76534,-1.94533 2.74534,-3.13067 0.77333,-1.084 1.76533,-1.93333 2.976,-2.552 1.212,-0.61866 2.48666,-0.92666 3.828,-0.92666 1.184,0 2.292,0.21866 3.324,0.656 1.032,0.43733 1.92,1.044 2.668,1.81733 0.74666,0.772 1.34133,1.676 1.77866,2.704 0.43734,1.03333 0.65734,2.116 0.65734,3.24933 0,2.00934 -0.61867,3.78934 -1.856,5.33467 -0.052,0.104 -0.104,0.168 -0.15467,0.19333 -0.052,0.0267 -0.104,0.0653 -0.15467,0.116 l -1.236,1.47067" />
  <path id="n1"
    d="m 267.68799,124.97601 c 0,0.104 -0.0133,0.22 -0.04,0.34933 -0.0253,0.128 -0.0373,0.244 -0.0373,0.34667 -0.0533,1.18666 -0.32267,2.28133 -0.812,3.28666 -0.49067,1.00534 -1.13333,1.88 -1.93333,2.628 -0.8,0.74667 -1.71467,1.34134 -2.744,1.77867 -1.032,0.43867 -2.14,0.65733 -3.32534,0.65733 -1.23733,0 -2.38533,-0.232 -3.44,-0.696 -1.05733,-0.464 -1.98533,-1.09466 -2.784,-1.892 -0.8,-0.8 -1.43066,-1.728 -1.89333,-2.78533 -0.46533,-1.056 -0.69733,-2.204 -0.69733,-3.44133 0,-0.464 0.0267,-0.82267 0.0773,-1.08267 V 91.961339 c 0,-7.471999 -1.03067,-12.627999 -3.09067,-15.462666 -2.116,-2.938666 -5.8,-4.408 -11.05733,-4.408 -5.87733,0 -10.00133,1.933333 -12.372,5.8 -2.424,3.762667 -3.63467,10.36 -3.63467,19.792 v 25.361337 c 0.104,0.36133 0.156,0.68266 0.156,0.96666 0,0.28267 0,0.63067 0,1.044 0,1.236 -0.232,2.40934 -0.696,3.516 -0.464,1.10934 -1.08266,2.076 -1.856,2.9 -0.77333,0.82534 -1.70133,1.48267 -2.784,1.972 -1.08133,0.48934 -2.24266,0.73467 -3.47866,0.73467 -1.23734,0 -2.41067,-0.232 -3.51734,-0.69467 -1.10933,-0.46533 -2.076,-1.10933 -2.9,-1.93466 -0.82533,-0.824 -1.468,-1.776 -1.93333,-2.86134 -0.46267,-1.08 -0.696,-2.24133 -0.696,-3.47866 0,-0.56667 0.0253,-0.97867 0.0773,-1.23734 V 67.374673 c 0,-1.237333 0.232,-2.397333 0.696,-3.478666 0.46534,-1.084 1.108,-2.036 1.93467,-2.861334 0.824,-0.823999 1.77733,-1.469333 2.86,-1.933333 1.08133,-0.462666 2.24133,-0.696 3.47867,-0.696 1.03066,0 2.02266,0.181334 2.97733,0.542667 0.95333,0.361333 1.81733,0.849333 2.58933,1.468 0.77334,0.618666 1.43067,1.368 1.972,2.242666 0.54134,0.876 0.91467,1.802667 1.12,2.784 6.13467,-6.082666 13.068,-9.125333 20.8,-9.125333 8.81467,0 15.66934,2.784 20.56667,8.349333 4.27733,4.64 6.41733,12.322667 6.41733,23.044 v 37.265337" />
  <path id="s2"
    d="m 329.45333,135.29734 c 3.24666,3.35333 4.87199,7.81066 4.87199,13.376 0,7.27066 -2.73333,13.35066 -8.19733,18.248 -5.20666,4.63733 -11.49466,6.96 -18.86533,6.96 -8.86533,0 -16.00533,-3.17067 -21.416,-9.51067 h 0.076 c -1.236,-1.392 -1.856,-3.14533 -1.856,-5.25867 0,-1.13333 0.22,-2.216 0.65867,-3.24666 0.43733,-1.03067 1.01733,-1.908 1.74,-2.63067 0.72,-0.72 1.58266,-1.3 2.59066,-1.73733 1.004,-0.43867 2.09734,-0.65867 3.28534,-0.65867 1.33733,0 2.59066,0.29733 3.748,0.89067 1.16133,0.592 2.128,1.404 2.9,2.43466 v -0.076 c 0.464,0.66934 0.85066,1.10667 1.16,1.312 1.03066,0.92934 2.15333,1.652 3.36266,2.16534 1.212,0.516 2.564,0.77333 4.06,0.77333 5.876,0 8.81467,-2.67867 8.81467,-8.04133 0,-3.092 -2.244,-5.95467 -6.72533,-8.58 -0.88,-0.41467 -1.75467,-0.84 -2.63067,-1.27734 -0.876,-0.43866 -1.752,-0.888 -2.628,-1.35333 -0.87733,-0.412 -1.73867,-0.824 -2.59067,-1.23867 -0.85066,-0.40933 -1.73866,-0.82266 -2.66666,-1.236 -5.156,-2.524 -8.68667,-5.02533 -10.59334,-7.49999 -2.62933,-3.092 -3.94266,-7.112 -3.94266,-12.06 0,-6.54667 2.21466,-11.95867 6.648,-16.23734 4.58666,-4.225331 10.12933,-6.339997 16.624,-6.339997 2.88666,0 5.56666,0.452 8.04133,1.353333 2.47333,0.901333 4.68933,2.254667 6.64933,4.058667 0.928,0.722667 1.67334,1.635997 2.24267,2.745337 0.56667,1.108 0.85067,2.308 0.85067,3.59466 0,1.18534 -0.22,2.28134 -0.65734,3.28534 -0.43866,1.004 -1.02,1.86933 -1.73866,2.59066 -0.724,0.724 -1.58667,1.30134 -2.59067,1.73867 -1.00533,0.44 -2.076,0.65867 -3.20933,0.65867 -1.13467,0 -2.192,-0.192 -3.16934,-0.58134 -0.98,-0.38533 -1.83066,-0.93866 -2.552,-1.66133 -1.54666,-1.39067 -3.27466,-2.08533 -5.18,-2.08533 -1.49733,0 -2.81066,0.51333 -3.944,1.54533 -1.08266,1.03067 -1.624,2.37067 -1.624,4.02 0,2.98933 3.29867,5.85067 9.89734,8.58267 4.64,1.95866 8.47733,3.864 11.52,5.72133 3.04,1.85467 5.38666,3.608 7.036,5.256" />
  <path id="bluecircle"
    d="M 342 164 A 55 55 0 0 0 452 164 A 52.5 52.5 0 0 0 342 164 M 357 164 A 40 40 0 0 1 437 164 A 40 40 0 0 1 357 164"/>
  <path id="t"
    d="m 493.92399,180.276 c 0.98,0.43867 1.828,1.016 2.552,1.74 0.72133,0.72134 1.3,1.572 1.74,2.55067 0.43733,0.98 0.656,2.036 0.656,3.168 0,1.13733 -0.21867,2.19333 -0.656,3.172 -0.44,0.98 -1.01867,1.82933 -1.74,2.552 -0.724,0.72267 -1.572,1.28933 -2.552,1.7 -0.97867,0.412 -2.036,0.61867 -3.16934,0.61867 h -0.30933 l -0.92667,0.0773 c -1.188,0.052 -2.17733,0.50267 -2.97733,1.35333 -0.79867,0.84934 -1.19733,1.86934 -1.19733,3.05467 v 46.0812 c 0,1.18547 -0.21867,2.3068 -0.65867,3.36307 -0.43733,1.05573 -1.04267,1.97186 -1.816,2.7452 -0.77333,0.77186 -1.68933,1.37973 -2.744,1.8172 -1.05733,0.4376 -2.204,0.65573 -3.44267,0.65573 -1.18533,0 -2.308,-0.21813 -3.36266,-0.65573 -1.05734,-0.43747 -1.984,-1.04534 -2.784,-1.8172 -0.79867,-0.77334 -1.42934,-1.68947 -1.89334,-2.7452 -0.46266,-1.05627 -0.69733,-2.1776 -0.69733,-3.36307 v -46.0812 c 0,-0.876 -0.24533,-1.66267 -0.732,-2.36 -0.492,-0.69467 -1.096,-1.248 -1.81733,-1.66 -0.72267,-0.104 -1.39333,-0.25733 -2.01067,-0.46533 -0.104,-0.0507 -0.192,-0.0773 -0.27066,-0.0773 -0.0787,0 -0.16934,-0.0507 -0.27067,-0.15466 -1.496,-0.668 -2.70533,-1.70134 -3.636,-3.092 -0.92667,-1.39334 -1.39067,-2.96267 -1.39067,-4.71867 0,-1.75067 0.464,-3.30933 1.39067,-4.676 0.93067,-1.36533 2.14,-2.408 3.636,-3.13067 0.10133,-0.10266 0.21867,-0.15466 0.34933,-0.15466 0.12534,0 0.24134,-0.0267 0.34534,-0.0787 0.516,-0.20533 1.13466,-0.36 1.85733,-0.46267 0.72133,-0.36133 1.32533,-0.88933 1.81733,-1.58666 0.48667,-0.69467 0.732,-1.47867 0.732,-2.35734 v -14.45866 c 0,-1.18534 0.23467,-2.30667 0.69733,-3.36267 0.464,-1.056 1.08134,-1.972 1.85467,-2.744 0.77333,-0.77467 1.69067,-1.392 2.74533,-1.856 1.05734,-0.46533 2.17867,-0.69867 3.364,-0.69867 1.18534,0 2.308,0.23334 3.36267,0.69867 1.05733,0.464 1.984,1.08133 2.78267,1.856 0.8,0.772 1.43066,1.688 1.89333,2.744 0.46667,1.056 0.69867,2.17733 0.69867,3.36267 V 175.288 c 0,1.18667 0.41066,2.204 1.23733,3.05467 0.82267,0.84933 1.828,1.27467 3.012,1.27467 h 1.16133 c 1.13334,0 2.19067,0.22 3.16934,0.65866" />
  <path id="r"
    d="m 550.58132,201.16934 c 1.132,0.1052 2.18933,0.388 3.16933,0.85053 0.97867,0.4656 1.84267,1.0948 2.59067,1.8948 0.74667,0.7984 1.32533,1.71467 1.74,2.74373 0.41067,1.03227 0.616,2.11614 0.616,3.24854 0,1.1848 -0.228,2.30613 -0.69467,3.3624 -0.464,1.05733 -1.084,1.98386 -1.85466,2.78386 -0.77334,0.79747 -1.68667,1.4292 -2.74667,1.8932 -1.052,0.46414 -2.17733,0.6964 -3.36267,0.6964 -0.41333,0 -0.80933,-0.0255 -1.19733,-0.076 -0.388,-0.0537 -0.78667,-0.12813 -1.19867,-0.23226 l -0.156,-0.0772 c -0.568,-0.15614 -1.08266,-0.25614 -1.544,-0.31094 -0.464,-0.0504 -0.98133,-0.076 -1.54666,-0.076 -9.536,0 -14.30267,7.1912 -14.30267,21.5724 v 29.22507 c 0.0467,0.2588 0.076,0.6708 0.076,1.23746 0,1.18534 -0.232,2.3068 -0.696,3.364 -0.46533,1.05574 -1.096,1.9828 -1.89467,2.7828 -0.8,0.79854 -1.72666,1.43027 -2.784,1.89427 -1.05466,0.46307 -2.17733,0.6964 -3.36266,0.6964 -1.23734,0 -2.38534,-0.23333 -3.44267,-0.6964 -1.05467,-0.464 -1.98133,-1.09573 -2.78133,-1.89427 -0.79867,-0.8 -1.432,-1.72706 -1.89334,-2.7828 -0.46533,-1.0572 -0.69733,-2.17866 -0.69733,-3.364 v -57.98906 c 0,-1.23747 0.232,-2.3828 0.69733,-3.43907 0.46134,-1.05733 1.09467,-1.98386 1.89334,-2.78386 0.8,-0.8 1.74,-1.43067 2.82266,-1.89587 1.08134,-0.46293 2.24267,-0.69373 3.48,-0.69373 2.06,0 3.89067,0.62973 5.48934,1.89226 1.596,1.264 2.59866,2.8744 3.016,4.83334 h 0.0773 c 3.19333,-3.3496 6.02933,-5.64534 8.50267,-6.88294 2.52666,-1.2864 5.54266,-1.93173 9.04666,-1.93173 0.464,0 0.93867,0 1.428,0 0.492,0 0.99467,0.0505 1.51067,0.15467" />
  <path id="e2"
    d="m 587.54132,234.55067 c -0.104,0.2572 -0.184,0.57867 -0.23467,0.96667 -0.052,0.38533 0,0.75986 0.15467,1.11973 0.156,0.36307 0.45067,0.6844 0.89067,0.96667 0.43733,0.2844 1.12133,0.42453 2.04933,0.42453 h 27.52533 c 0.71867,-0.0485 1.26133,-0.21773 1.62,-0.5032 0.36,-0.2812 0.60933,-0.59053 0.73733,-0.92653 0.128,-0.3344 0.16667,-0.6692 0.11734,-1.0052 -0.052,-0.33494 -0.104,-0.63067 -0.15867,-0.888 -2.88533,-7.11467 -8.376,-10.6708 -16.46667,-10.6708 -2.27066,0 -4.25199,0.33746 -5.95333,1.00573 -1.856,0.61707 -3.55733,1.5452 -5.104,2.78227 -0.77333,0.61866 -1.48133,1.276 -2.12533,1.9708 -0.64533,0.69586 -1.22667,1.48386 -1.73867,2.3588 -0.26133,0.41306 -0.49333,0.812 -0.696,1.2 -0.208,0.38493 -0.41333,0.78493 -0.61733,1.19853 z m 45.22933,41.44266 c -2.47333,2.67867 -5.208,4.97454 -8.19733,6.88027 -2.888,1.70093 -6.00534,2.988 -9.35467,3.86667 -3.29733,0.82386 -6.932,1.23693 -10.90133,1.23693 -11.28933,0 -20.336,-3.6344 -27.14,-10.9036 -6.80267,-7.16307 -10.20533,-16.8016 -10.20533,-28.9152 0,-11.90773 3.29866,-21.54626 9.89733,-28.91813 6.6,-7.26667 15.436,-10.9032 26.51866,-10.9032 5.62,0 10.59334,0.86413 14.924,2.59227 4.328,1.72653 8.11734,4.39466 11.368,8.00253 6.44267,7.01093 9.66134,16.7 9.66134,29.0708 -0.10134,1.18653 -0.58134,2.19067 -1.42934,3.01613 -0.852,0.82507 -1.868,1.236 -3.05466,1.236 h -45.61733 c -0.20667,0 -0.54267,0.0265 -1.00267,0.0787 -0.46667,0.052 -0.91733,0.1932 -1.35467,0.42387 -0.43733,0.23333 -0.78666,0.59333 -1.044,1.08293 -0.25733,0.4916 -0.31066,1.1728 -0.15333,2.0504 0.82,4.48387 2.65067,8.16773 5.48667,11.0548 3.60666,3.60933 8.19733,5.41186 13.76533,5.41186 4.328,0 7.93466,-1.028 10.82266,-3.09213 0.77067,-0.56667 1.584,-1.30107 2.43467,-2.20253 0.852,-0.90267 1.76933,-1.9464 2.748,-3.13187 0.77067,-1.0828 1.76267,-1.93226 2.97467,-2.55106 1.21066,-0.61814 2.48933,-0.92907 3.828,-0.92907 1.184,0 2.29066,0.21973 3.32266,0.6572 1.03334,0.44013 1.92134,1.04427 2.66934,1.8188 0.744,0.7708 1.33866,1.67453 1.776,2.70413 0.44,1.03334 0.65866,2.11467 0.65866,3.248 0,2.0104 -0.61733,3.78907 -1.85466,5.33427 -0.052,0.10426 -0.104,0.16826 -0.156,0.19226 -0.052,0.0292 -0.104,0.0683 -0.15334,0.1172 l -1.23733,1.4708" />
  <path id="n2"
    d="m 720.92932,253.20787 c 0,0.10267 -0.0107,0.2204 -0.0387,0.34947 -0.024,0.12813 -0.036,0.24386 -0.036,0.3464 -0.052,1.18693 -0.32133,2.28026 -0.81333,3.28693 -0.48934,1.00533 -1.13467,1.87973 -1.93467,2.62813 -0.79733,0.7464 -1.71067,1.3412 -2.74267,1.77974 -1.03333,0.436 -2.14,0.65626 -3.32533,0.65626 -1.236,0 -2.38267,-0.23226 -3.44,-0.69746 -1.05467,-0.46134 -1.984,-1.0932 -2.78133,-1.89214 -0.80134,-0.7984 -1.432,-1.72653 -1.89867,-2.78226 -0.46267,-1.05627 -0.69467,-2.2068 -0.69467,-3.44174 0,-0.46506 0.0267,-0.82493 0.0787,-1.08386 v -32.164 c 0,-7.47347 -1.03467,-12.62814 -3.09467,-15.464 -2.112,-2.9376 -5.796,-4.40667 -11.05733,-4.40667 -5.87467,0 -10,1.9332 -12.36933,5.7988 -2.42134,3.764 -3.636,10.36093 -3.636,19.7932 v 25.36147 c 0.10533,0.35986 0.15733,0.6812 0.15733,0.96666 0,0.2812 0,0.63174 0,1.04267 0,1.23707 -0.232,2.40947 -0.696,3.5172 -0.464,1.10947 -1.08267,2.07613 -1.85467,2.9 -0.776,0.82667 -1.70266,1.48133 -2.78266,1.97093 -1.084,0.49054 -2.24534,0.73587 -3.48267,0.73587 -1.236,0 -2.408,-0.23333 -3.51467,-0.6948 -1.112,-0.46667 -2.076,-1.10773 -2.89866,-1.93493 -0.828,-0.82387 -1.472,-1.77854 -1.93467,-2.86094 -0.464,-1.08173 -0.696,-2.24266 -0.696,-3.4776 0,-0.56666 0.024,-0.9796 0.0787,-1.23746 v -56.59707 c 0,-1.23733 0.23066,-2.39733 0.69466,-3.47867 0.46134,-1.084 1.10667,-2.03733 1.932,-2.86133 0.824,-0.824 1.77867,-1.46933 2.86,-1.93333 1.08534,-0.464 2.24267,-0.696 3.47867,-0.696 1.03467,0 2.024,0.18133 2.98,0.54133 0.952,0.36133 1.81467,0.85067 2.588,1.46933 0.77333,0.61867 1.432,1.36667 1.972,2.24267 0.54133,0.876 0.916,1.804 1.11867,2.78267 6.136,-6.08 13.07066,-9.124 20.80266,-9.124 8.812,0 15.66667,2.784 20.56534,8.35066 4.27866,4.63867 6.416,12.32147 6.416,23.0428 v 37.26507" />
  <path id="d"
    d="m 746.82798,178.536 c 0,7.21734 1.932,13.092 5.79733,17.62934 3.968,4.58786 8.968,6.88106 15,6.88106 6.44267,0 11.648,-2.2156 15.61734,-6.65173 3.968,-4.58533 5.952,-10.41067 5.952,-17.472 0,-7.06133 -1.984,-12.88533 -5.952,-17.476 -3.96934,-4.48267 -9.12,-6.724 -15.464,-6.724 -5.97867,0 -10.976,2.268 -14.99734,6.80267 -3.972,4.588 -5.95333,10.25866 -5.95333,17.01066 z m 54.432,37.88654 h -8.81733 c -1.18267,-0.0505 -2.21334,-0.50267 -3.09067,-1.35467 -0.87867,-0.84907 -1.316,-1.86773 -1.316,-3.0532 v -3.40253 c -6.90533,6.64946 -14.66667,9.9744 -23.27067,9.9744 -10.312,0 -18.84133,-3.76147 -25.59333,-11.28907 -6.75333,-7.7828 -10.13066,-17.39747 -10.13066,-28.84013 0,-11.13334 3.37733,-20.51334 10.13066,-28.144 6.648,-7.576 15.04933,-11.36534 25.20533,-11.36534 8.816,0 16.70134,3.60934 23.65867,10.82534 v -47.604 c 0,-1.23733 0.23467,-2.385334 0.696,-3.440001 0.46267,-1.057333 1.096,-1.985333 1.89333,-2.784 0.80134,-0.798666 1.72667,-1.432 2.78667,-1.893333 1.05467,-0.465333 2.20267,-0.697333 3.43733,-0.697333 1.18667,0 2.32267,0.232 3.40267,0.697333 1.084,0.461333 2.024,1.094667 2.824,1.893333 0.79867,0.798667 1.42933,1.726667 1.896,2.784 0.46267,1.054667 0.69467,2.202671 0.69467,3.440001 V 212.4012 c -0.104,1.1348 -0.58267,2.088 -1.432,2.8604 -0.84934,0.7744 -1.84134,1.16094 -2.97467,1.16094" />
</svg>
