
  <svg
    xmlns="http://www.w3.org/2000/svg"
    viewBox="0 0 1920 1080"
    width="1920"
    height="1080"
    preserveAspectRatio="xMidYMid slice"
  >
    <style>
  line {
    stroke-width: 0.5px;
    stroke: #010259;
    stroke-opacity: 0.4;
  }
  path {
    fill: none;
  }
  @media screen and (prefers-reduced-motion: reduce) {
    circle {
      animation: none !important;
      display: none;
    }
  }
</style>
    <g transform="translate(0.5, 0.5)">
      <line x1="7" x2="7" y2="1080" />
<line x1="21" x2="21" y2="1080" />
<line x1="35" x2="35" y2="1080" />
<line x1="49" x2="49" y2="1080" />
<line x1="63" x2="63" y2="1080" />
<line x1="77" x2="77" y2="1080" />
<line x1="91" x2="91" y2="1080" />
<line x1="105" x2="105" y2="1080" />
<line x1="119" x2="119" y2="1080" />
<line x1="133" x2="133" y2="1080" />
<line x1="147" x2="147" y2="1080" />
<line x1="161" x2="161" y2="1080" />
<line x1="175" x2="175" y2="1080" />
<line x1="189" x2="189" y2="1080" />
<line x1="203" x2="203" y2="1080" />
<line x1="217" x2="217" y2="1080" />
<line x1="231" x2="231" y2="1080" />
<line x1="245" x2="245" y2="1080" />
<line x1="259" x2="259" y2="1080" />
<line x1="273" x2="273" y2="1080" />
<line x1="287" x2="287" y2="1080" />
<line x1="301" x2="301" y2="1080" />
<line x1="315" x2="315" y2="1080" />
<line x1="329" x2="329" y2="1080" />
<line x1="343" x2="343" y2="1080" />
<line x1="357" x2="357" y2="1080" />
<line x1="371" x2="371" y2="1080" />
<line x1="385" x2="385" y2="1080" />
<line x1="399" x2="399" y2="1080" />
<line x1="413" x2="413" y2="1080" />
<line x1="427" x2="427" y2="1080" />
<line x1="441" x2="441" y2="1080" />
<line x1="455" x2="455" y2="1080" />
<line x1="469" x2="469" y2="1080" />
<line x1="483" x2="483" y2="1080" />
<line x1="497" x2="497" y2="1080" />
<line x1="511" x2="511" y2="1080" />
<line x1="525" x2="525" y2="1080" />
<line x1="539" x2="539" y2="1080" />
<line x1="553" x2="553" y2="1080" />
<line x1="567" x2="567" y2="1080" />
<line x1="581" x2="581" y2="1080" />
<line x1="595" x2="595" y2="1080" />
<line x1="609" x2="609" y2="1080" />
<line x1="623" x2="623" y2="1080" />
<line x1="637" x2="637" y2="1080" />
<line x1="651" x2="651" y2="1080" />
<line x1="665" x2="665" y2="1080" />
<line x1="679" x2="679" y2="1080" />
<line x1="693" x2="693" y2="1080" />
<line x1="707" x2="707" y2="1080" />
<line x1="721" x2="721" y2="1080" />
<line x1="735" x2="735" y2="1080" />
<line x1="749" x2="749" y2="1080" />
<line x1="763" x2="763" y2="1080" />
<line x1="777" x2="777" y2="1080" />
<line x1="791" x2="791" y2="1080" />
<line x1="805" x2="805" y2="1080" />
<line x1="819" x2="819" y2="1080" />
<line x1="833" x2="833" y2="1080" />
<line x1="847" x2="847" y2="1080" />
<line x1="861" x2="861" y2="1080" />
<line x1="875" x2="875" y2="1080" />
<line x1="889" x2="889" y2="1080" />
<line x1="903" x2="903" y2="1080" />
<line x1="917" x2="917" y2="1080" />
<line x1="931" x2="931" y2="1080" />
<line x1="945" x2="945" y2="1080" />
<line x1="959" x2="959" y2="1080" />
<line x1="973" x2="973" y2="1080" />
<line x1="987" x2="987" y2="1080" />
<line x1="1001" x2="1001" y2="1080" />
<line x1="1015" x2="1015" y2="1080" />
<line x1="1029" x2="1029" y2="1080" />
<line x1="1043" x2="1043" y2="1080" />
<line x1="1057" x2="1057" y2="1080" />
<line x1="1071" x2="1071" y2="1080" />
<line x1="1085" x2="1085" y2="1080" />
<line x1="1099" x2="1099" y2="1080" />
<line x1="1113" x2="1113" y2="1080" />
<line x1="1127" x2="1127" y2="1080" />
<line x1="1141" x2="1141" y2="1080" />
<line x1="1155" x2="1155" y2="1080" />
<line x1="1169" x2="1169" y2="1080" />
<line x1="1183" x2="1183" y2="1080" />
<line x1="1197" x2="1197" y2="1080" />
<line x1="1211" x2="1211" y2="1080" />
<line x1="1225" x2="1225" y2="1080" />
<line x1="1239" x2="1239" y2="1080" />
<line x1="1253" x2="1253" y2="1080" />
<line x1="1267" x2="1267" y2="1080" />
<line x1="1281" x2="1281" y2="1080" />
<line x1="1295" x2="1295" y2="1080" />
<line x1="1309" x2="1309" y2="1080" />
<line x1="1323" x2="1323" y2="1080" />
<line x1="1337" x2="1337" y2="1080" />
<line x1="1351" x2="1351" y2="1080" />
<line x1="1365" x2="1365" y2="1080" />
<line x1="1379" x2="1379" y2="1080" />
<line x1="1393" x2="1393" y2="1080" />
<line x1="1407" x2="1407" y2="1080" />
<line x1="1421" x2="1421" y2="1080" />
<line x1="1435" x2="1435" y2="1080" />
<line x1="1449" x2="1449" y2="1080" />
<line x1="1463" x2="1463" y2="1080" />
<line x1="1477" x2="1477" y2="1080" />
<line x1="1491" x2="1491" y2="1080" />
<line x1="1505" x2="1505" y2="1080" />
<line x1="1519" x2="1519" y2="1080" />
<line x1="1533" x2="1533" y2="1080" />
<line x1="1547" x2="1547" y2="1080" />
<line x1="1561" x2="1561" y2="1080" />
<line x1="1575" x2="1575" y2="1080" />
<line x1="1589" x2="1589" y2="1080" />
<line x1="1603" x2="1603" y2="1080" />
<line x1="1617" x2="1617" y2="1080" />
<line x1="1631" x2="1631" y2="1080" />
<line x1="1645" x2="1645" y2="1080" />
<line x1="1659" x2="1659" y2="1080" />
<line x1="1673" x2="1673" y2="1080" />
<line x1="1687" x2="1687" y2="1080" />
<line x1="1701" x2="1701" y2="1080" />
<line x1="1715" x2="1715" y2="1080" />
<line x1="1729" x2="1729" y2="1080" />
<line x1="1743" x2="1743" y2="1080" />
<line x1="1757" x2="1757" y2="1080" />
<line x1="1771" x2="1771" y2="1080" />
<line x1="1785" x2="1785" y2="1080" />
<line x1="1799" x2="1799" y2="1080" />
<line x1="1813" x2="1813" y2="1080" />
<line x1="1827" x2="1827" y2="1080" />
<line x1="1841" x2="1841" y2="1080" />
<line x1="1855" x2="1855" y2="1080" />
<line x1="1869" x2="1869" y2="1080" />
<line x1="1883" x2="1883" y2="1080" />
<line x1="1897" x2="1897" y2="1080" />
<line x1="1911" x2="1911" y2="1080" />
<line x2="1920" y1="7" y2="7" />
<line x2="1920" y1="21" y2="21" />
<line x2="1920" y1="35" y2="35" />
<line x2="1920" y1="49" y2="49" />
<line x2="1920" y1="63" y2="63" />
<line x2="1920" y1="77" y2="77" />
<line x2="1920" y1="91" y2="91" />
<line x2="1920" y1="105" y2="105" />
<line x2="1920" y1="119" y2="119" />
<line x2="1920" y1="133" y2="133" />
<line x2="1920" y1="147" y2="147" />
<line x2="1920" y1="161" y2="161" />
<line x2="1920" y1="175" y2="175" />
<line x2="1920" y1="189" y2="189" />
<line x2="1920" y1="203" y2="203" />
<line x2="1920" y1="217" y2="217" />
<line x2="1920" y1="231" y2="231" />
<line x2="1920" y1="245" y2="245" />
<line x2="1920" y1="259" y2="259" />
<line x2="1920" y1="273" y2="273" />
<line x2="1920" y1="287" y2="287" />
<line x2="1920" y1="301" y2="301" />
<line x2="1920" y1="315" y2="315" />
<line x2="1920" y1="329" y2="329" />
<line x2="1920" y1="343" y2="343" />
<line x2="1920" y1="357" y2="357" />
<line x2="1920" y1="371" y2="371" />
<line x2="1920" y1="385" y2="385" />
<line x2="1920" y1="399" y2="399" />
<line x2="1920" y1="413" y2="413" />
<line x2="1920" y1="427" y2="427" />
<line x2="1920" y1="441" y2="441" />
<line x2="1920" y1="455" y2="455" />
<line x2="1920" y1="469" y2="469" />
<line x2="1920" y1="483" y2="483" />
<line x2="1920" y1="497" y2="497" />
<line x2="1920" y1="511" y2="511" />
<line x2="1920" y1="525" y2="525" />
<line x2="1920" y1="539" y2="539" />
<line x2="1920" y1="553" y2="553" />
<line x2="1920" y1="567" y2="567" />
<line x2="1920" y1="581" y2="581" />
<line x2="1920" y1="595" y2="595" />
<line x2="1920" y1="609" y2="609" />
<line x2="1920" y1="623" y2="623" />
<line x2="1920" y1="637" y2="637" />
<line x2="1920" y1="651" y2="651" />
<line x2="1920" y1="665" y2="665" />
<line x2="1920" y1="679" y2="679" />
<line x2="1920" y1="693" y2="693" />
<line x2="1920" y1="707" y2="707" />
<line x2="1920" y1="721" y2="721" />
<line x2="1920" y1="735" y2="735" />
<line x2="1920" y1="749" y2="749" />
<line x2="1920" y1="763" y2="763" />
<line x2="1920" y1="777" y2="777" />
<line x2="1920" y1="791" y2="791" />
<line x2="1920" y1="805" y2="805" />
<line x2="1920" y1="819" y2="819" />
<line x2="1920" y1="833" y2="833" />
<line x2="1920" y1="847" y2="847" />
<line x2="1920" y1="861" y2="861" />
<line x2="1920" y1="875" y2="875" />
<line x2="1920" y1="889" y2="889" />
<line x2="1920" y1="903" y2="903" />
<line x2="1920" y1="917" y2="917" />
<line x2="1920" y1="931" y2="931" />
<line x2="1920" y1="945" y2="945" />
<line x2="1920" y1="959" y2="959" />
<line x2="1920" y1="973" y2="973" />
<line x2="1920" y1="987" y2="987" />
<line x2="1920" y1="1001" y2="1001" />
<line x2="1920" y1="1015" y2="1015" />
<line x2="1920" y1="1029" y2="1029" />
<line x2="1920" y1="1043" y2="1043" />
<line x2="1920" y1="1057" y2="1057" />
<line x2="1920" y1="1071" y2="1071" />
      <path
        stroke="#010259"
        stroke-width="14"
        vector-effect="non-scaling-stroke"
        stroke-linecap="square"
        d="M1246,686L994,686L938,686L742,882L560,1064L462,1064L392,994L210,812 M1470,602L1470,322L1176,28L1134,70L854,350L812,350L686,476L672,490 M560,868L616,924L616,980L700,1064L798,1064L1092,1064L1134,1022L1134,770 M546,1022L560,1036L588,1036L854,1036L994,1036L1064,1036L1064,742L812,490 M672,364L882,574L952,574L952,462L658,462L616,462L616,588L546,658 M714,966L770,966L1064,966L1316,966L1372,966L1372,700L1120,700L1120,742 M602,266L812,56L1022,56L1302,56L1596,56L1666,56L1750,140L1820,140"
      />
      <path
        stroke="white"
        stroke-width="1px"
        vector-effect="non-scaling-stroke"
        shape-rendering="auto"
        d="M1246,686L994,686L938,686L742,882L560,1064L462,1064L392,994L210,812 M1470,602L1470,322L1176,28L1134,70L854,350L812,350L686,476L672,490 M560,868L616,924L616,980L700,1064L798,1064L1092,1064L1134,1022L1134,770 M546,1022L560,1036L588,1036L854,1036L994,1036L1064,1036L1064,742L812,490 M672,364L882,574L952,574L952,462L658,462L616,462L616,588L546,658 M714,966L770,966L1064,966L1316,966L1372,966L1372,700L1120,700L1120,742 M602,266L812,56L1022,56L1302,56L1596,56L1666,56L1750,140L1820,140"
      />
      <circle fill="white" r="2">
        <animateMotion dur="41.472s" repeatCount="indefinite" path="M1246,686L994,686L938,686L742,882L560,1064L462,1064L392,994L210,812 M1470,602L1470,322L1176,28L1134,70L854,350L812,350L686,476L672,490 M560,868L616,924L616,980L700,1064L798,1064L1092,1064L1134,1022L1134,770 M546,1022L560,1036L588,1036L854,1036L994,1036L1064,1036L1064,742L812,490 M672,364L882,574L952,574L952,462L658,462L616,462L616,588L546,658 M714,966L770,966L1064,966L1316,966L1372,966L1372,700L1120,700L1120,742 M602,266L812,56L1022,56L1302,56L1596,56L1666,56L1750,140L1820,140" />
      </circle>
    </g>
  </svg>

