<svg xmlns="http://www.w3.org/2000/svg" viewBox="0 0 500 1600" width="500" height="1600">
    <path fill="none" stroke="#010259" stroke-width="20px" vector-effect="non-scaling-stroke" stroke-linecap="square" d="M380,1100L240,1100L240,1240L220,1260L200,1260L140,1200L140,940L340,740 M460,940L180,1220L420,1460L420,1460L440,1460L440,1300L200,1300L140,1360 M400,400L400,160L380,140L180,340L180,600L140,640L120,660L240,780 M100,800L100,960L100,980L40,1040L40,1100L320,1380L320,1500L440,1500 M140,80L80,140L380,440L400,440L420,440L420,400L420,120L340,40"></path>
    <path fill="none" stroke="white" stroke-width="1.5px" vector-effect="non-scaling-stroke" d="M380,1100L240,1100L240,1240L220,1260L200,1260L140,1200L140,940L340,740 M460,940L180,1220L420,1460L420,1460L440,1460L440,1300L200,1300L140,1360 M400,400L400,160L380,140L180,340L180,600L140,640L120,660L240,780 M100,800L100,960L100,980L40,1040L40,1100L320,1380L320,1500L440,1500 M140,80L80,140L380,440L400,440L420,440L420,400L420,120L340,40"></path>
</svg>