<svg xmlns="http://www.w3.org/2000/svg" viewBox="0 0 500 1600" width="500" height="1600">
    <path fill="none" stroke="#010259" stroke-width="20px" vector-effect="non-scaling-stroke" stroke-linecap="square" d="M260,660L460,460L460,380L460,300L280,300L200,380L160,380L160,660 M360,740L360,960L320,1000L320,1280L260,1340L380,1460L460,1380L440,1360 M300,1220L300,1380L320,1380L460,1380L460,1200L460,1140L400,1080L220,900 M440,220L300,80L260,120L260,260L400,260L420,280L420,500L420,560 M60,360L140,360L320,360L320,120L180,120L160,140L160,420L160,600"></path>
    <path fill="none" stroke="white" stroke-width="1.5px" vector-effect="non-scaling-stroke" d="M260,660L460,460L460,380L460,300L280,300L200,380L160,380L160,660 M360,740L360,960L320,1000L320,1280L260,1340L380,1460L460,1380L440,1360 M300,1220L300,1380L320,1380L460,1380L460,1200L460,1140L400,1080L220,900 M440,220L300,80L260,120L260,260L400,260L420,280L420,500L420,560 M60,360L140,360L320,360L320,120L180,120L160,140L160,420L160,600"></path>
</svg>