<svg xmlns="http://www.w3.org/2000/svg" viewBox="0 0 500 1600" width="500" height="1600">
  <path fill="none" stroke="#010259" stroke-width="20px" vector-effect="non-scaling-stroke" stroke-linecap="square" d="M200,920L460,660L460,560L340,560L180,400L60,520L140,600L340,600 M220,980L320,980L340,980L400,1040L420,1060L460,1060L460,760L200,760 M140,140L120,120L80,160L80,360L140,360L140,240L320,60L340,60 M160,1300L260,1200L260,1160L360,1060L380,1060L380,960L380,700L300,620 M420,980L420,740L120,440L120,300L240,180L380,40L420,40L420,40"></path>
  <path fill="none" stroke="white" stroke-width="1.5px" vector-effect="non-scaling-stroke" d="M200,920L460,660L460,560L340,560L180,400L60,520L140,600L340,600 M220,980L320,980L340,980L400,1040L420,1060L460,1060L460,760L200,760 M140,140L120,120L80,160L80,360L140,360L140,240L320,60L340,60 M160,1300L260,1200L260,1160L360,1060L380,1060L380,960L380,700L300,620 M420,980L420,740L120,440L120,300L240,180L380,40L420,40L420,40"></path>
</svg>