<svg xmlns="http://www.w3.org/2000/svg" viewBox="0 0 500 1600" width="500" height="1600">
  <path fill="none" stroke="#010259" stroke-width="20px" vector-effect="non-scaling-stroke" stroke-linecap="square" d="M200,300L420,80L380,40L80,40L80,320L240,480L360,480L360,380 M260,1120L380,1120L380,1000L380,880L220,720L200,740L180,740L80,840 M0,480L0,480L0,480L0,480L0,480L0,480L0,480L0,480 M220,780L220,940L320,1040L320,1280L340,1300L380,1300L380,1240L380,1060 M240,600L340,700L460,580L160,280L160,140L220,80L260,40L260,40"></path>
  <path fill="none" stroke="white" stroke-width="1.5px" vector-effect="non-scaling-stroke" d="M200,300L420,80L380,40L80,40L80,320L240,480L360,480L360,380 M260,1120L380,1120L380,1000L380,880L220,720L200,740L180,740L80,840 M0,480L0,480L0,480L0,480L0,480L0,480L0,480L0,480 M220,780L220,940L320,1040L320,1280L340,1300L380,1300L380,1240L380,1060 M240,600L340,700L460,580L160,280L160,140L220,80L260,40L260,40"></path>
</svg>