<?xml version="1.0" encoding="utf-8"?>
<!-- Generator: Adobe Illustrator 19.0.1, SVG Export Plug-In . SVG Version: 6.00 Build 0)  -->
<!DOCTYPE svg PUBLIC "-//W3C//DTD SVG 1.1//EN" "http://www.w3.org/Graphics/SVG/1.1/DTD/svg11.dtd">
<svg version="1.1" id="Layer_1" xmlns="http://www.w3.org/2000/svg" xmlns:xlink="http://www.w3.org/1999/xlink" x="0px" y="0px"
	 viewBox="6 2 282.2 37.1" enable-background="new 0 0 294.2 41.1" xml:space="preserve">
<g>
	<path fill="#0061AA" d="M7.1,16.8c0-4.1-0.2-8.3-0.4-12.4c2.4,0.1,4.8,0.2,7.2,0.2c2.4,0,4.8-0.2,7.2-0.2c11.2,0,15.8,6,15.8,15.9
		c0,12.8-9.9,17.2-17.4,17.2c-2.2,0-4.3-0.2-6.4-0.2c-2.2,0-4.3,0.1-6.4,0.2c0.2-4.1,0.4-8.3,0.4-12.4V16.8z M11.1,25.1
		c0,3.4,0.1,6.9,0.3,10.2c1.3,0.3,3.8,0.5,6.3,0.5c7,0,14.7-2.8,14.7-15.4c0-11.1-5.8-13.9-13.6-13.9c-2.8,0-5.4,0.2-7.4,0.5
		c-0.2,3.1-0.3,6.5-0.3,9.9V25.1z"/>
	<path fill="#0061AA" d="M70.8,4.4c0.6,0.1,1.3,0.2,2,0.2c0.5,0,1-0.1,1.4-0.2c-0.4,4.5-0.8,12.9-0.9,19.9
		c-0.1,8.5-5,13.8-13.7,13.8c-9.5,0-13.7-4.4-13.7-13.7c0-3,0.2-5.2,0.2-7.6c0-5.3-0.2-9.6-0.3-12.4c0.8,0.1,1.7,0.2,2.5,0.2
		c0.7,0,1.4-0.1,2.1-0.2c-0.3,2.8-0.6,9.3-0.6,16.4c0,6.5,0,15,10.7,15c10.5,0,10.5-9.8,10.5-15.9C71.1,10.9,71.1,6.3,70.8,4.4"/>
	<path fill="#0061AA" d="M100.4,3.8c10.6,0,18,6.3,18,17.2c0,10.9-7.4,17.2-18,17.2c-10.5,0-17.9-6.3-17.9-17.2
		C82.4,10.1,89.8,3.8,100.4,3.8 M100.4,5.6c-7.5,0-13.2,4.7-13.2,15.4c0,10.6,5.8,15.4,13.2,15.4c7.5,0,13.3-4.7,13.3-15.4
		C113.6,10.3,107.9,5.6,100.4,5.6"/>
	<path fill="#0061AA" d="M128.4,16.8c0-4.1-0.2-8.3-0.4-12.4c2.4,0.1,4.8,0.2,7.2,0.2c2.4,0,4.8-0.2,7.2-0.2
		c11.2,0,15.8,6,15.8,15.9c0,12.8-9.9,17.2-17.5,17.2c-2.2,0-4.3-0.2-6.4-0.2c-2.2,0-4.3,0.1-6.4,0.2c0.2-4.1,0.4-8.3,0.4-12.4V16.8
		z M132.3,25.1c0,3.4,0.1,6.9,0.3,10.2c1.3,0.3,3.8,0.5,6.3,0.5c7,0,14.7-2.8,14.7-15.4c0-11.1-5.8-13.9-13.6-13.9
		c-2.8,0-5.4,0.2-7.4,0.5c-0.2,3.1-0.3,6.5-0.3,9.9V25.1z"/>
	<path fill="#0061AA" d="M169.8,16.8c0-4.1-0.2-8.3-0.4-12.4c2.9,0.1,5.7,0.2,8.6,0.2s5.7-0.1,8.5-0.2c-0.1,0.5-0.1,1-0.1,1.4
		c0,0.5,0,1,0.1,1.4c-4-0.3-6.4-0.6-12.6-0.6c0,2.1-0.2,3.7-0.2,6.1c0,2.5,0,5.1,0,6.3c5.7,0,8.8-0.2,11.6-0.5
		c-0.1,0.5-0.1,1-0.1,1.5c0,0.5,0,1,0.1,1.4c-3.3-0.3-9.3-0.4-11.6-0.4c0,1.1,0,2.3,0,7c0,3.6,0,6,0.1,7.2c4.3,0,9.9,0,12.9-0.6
		c-0.1,0.4-0.1,1.1-0.1,1.5c0,0.4,0,1,0.1,1.4c-2.8-0.1-5.7-0.2-8.6-0.2c-2.9,0-5.8,0.1-8.7,0.2c0.2-5.3,0.4-7.2,0.4-12.5V16.8z"/>
	<path fill="#0061AA" d="M223.7,35.4c-1.2,1-5.2,2.7-10,2.7c-10.1,0-17.5-6.3-17.5-17.2c0-10.9,7.4-17.2,18-17.2
		c4.1,0,7.8,1,10.4,2.2c-0.5,0.9-0.8,2.7-1,3.7l-0.3,0.1c-1.3-1.5-4.6-4.3-9.1-4.3c-7.5,0-13.3,4.7-13.3,15.4
		c0,10.6,5.8,15.4,13.3,15.4c4.6,0,7.9-2.6,9.7-4l0.2,0.2L223.7,35.4z"/>
	<path fill="#0061AA" d="M234.3,16.8c0-4.1-0.2-8.3-0.4-12.4c0.8,0.1,1.6,0.2,2.3,0.2c0.8,0,1.5-0.1,2.4-0.2
		c-0.2,4.1-0.4,8.3-0.4,12.4v8.2c0,4.1,0.2,8.3,0.4,12.4c-0.8-0.1-1.6-0.2-2.4-0.2c-0.8,0-1.5,0.1-2.3,0.2c0.2-4.1,0.4-8.3,0.4-12.4
		V16.8z"/>
	<path fill="#0061AA" d="M254.8,3.8c4.4,9,8.9,17.4,13.8,26.4c1.9-3.7,9.5-17.5,14.2-26.4h0.6c1.4,12.3,2.4,22.7,3.9,33.7
		c-0.8-0.1-1.5-0.2-2.3-0.2c-0.8,0-1.5,0.1-2.3,0.2c-0.7-8.6-1.3-16.5-2.4-24.7h-0.1c-4.4,8-8.8,15.9-12.6,24.5h-0.4
		c-3.7-8-8.1-16.2-12.3-24.5H255c-0.9,7.9-2.3,19.3-2.3,24.7c-0.6-0.1-1.1-0.2-1.7-0.2c-0.6,0-1.1,0.1-1.7,0.2
		C251,26.9,252.9,14,254,3.8H254.8z"/>
</g>
</svg>
