<svg
  xmlns="http://www.w3.org/2000/svg"
  viewBox="-2 9 444 60"
  preserveAspectRatio="xMinYMid meet"
>
  <defs>
    <style>
      path {
        stroke: black;
        stroke-width: 3;
        fill: none;
        stroke-dasharray: 180;
        stroke-dashoffset: 180;
        animation: dash 0.5s linear forwards;
      }
      path:nth-child(1) {animation-delay: 0s; }
      path:nth-child(2) {animation-delay: 0.25s; }
      path:nth-child(3) {animation-delay: 0.3s; }
      path:nth-child(4) {animation-delay: 0.5s; }
      path:nth-child(5) {animation-delay: 0.65s; }
      path:nth-child(6) {animation-delay: 0.7s; }
      path:nth-child(7) {animation-delay: 1.1s; }
      path:nth-child(8) {animation-delay: 1.25s; }
      path:nth-child(9) {animation-delay: 1.5s; }
      path:nth-child(10) {animation-delay: 1.9s; }
      .fin {
        stroke:#c51a1b;
      }
      @keyframes dash {
        from {
          stroke-dasharray: 180;
          stroke-dashoffset: 180;
        }
        to {
          stroke-dashoffset: 0;
        }
      }
      @media screen and (prefers-reduced-motion: reduce) {
        path {
          animation: none !important;
        }
      }
    </style>
  </defs>
  <g>
    <path d="M4,13v48m0,-26.28h32m0,-22v48"/>
    <path d="M57.4,13v46.5h13.5"/>
    <path d="M83.7,14.2h32.05l-32.7,46.3"/>
    <path class="fin" d="M149.7,61v-46.7h17.65m-16.5,20.35h16.1"/>
    <path class="fin" d="M185.7,13v48"/>
    <path class="fin" d="M206.9,61v-45l40.4,42.7v-45.7"/>
    <path d="M268.4,13v46.5h13.6"/>
    <path d="M292,61.5l18.7,-46l18.7,46m-30,-17.9h22"/>
    <path d="M345.5,61v-45l40.5,42.7v-45.7"/>
    <path d="M407,61v-46.7h8.8a22.6 22.6 0 0 1 0 45.2h-8"/>
  </g>
</svg>