<svg
  xmlns="http://www.w3.org/2000/svg"
  viewBox="0.1 9 442 57"
  preserveAspectRatio="xMinYMid meet"
>
  <defs>
    <style>
      path {
        stroke: black;
        stroke-width: 2.5;
        vectorEffect: non-scaling-stroke;
        shapeRendering: geometricPrecision;
      }
      .cls-1 {
        fill: black;
        stroke: black;
      }
      .cls-2 {
        fill: #c51a1b;
        stroke: #c51a1b;
      }
      @media (prefers-color-scheme: dark) {
        .cls-1 {
          fill: white;
          stroke: white;
        }
      }
    </style>
  </defs>
  <path class="cls-1" d="M34.66,33.25V12.81h3.07V61H34.66V36.12H5.41V61H2.35V12.81H5.41V33.25Z"/>
  <path class="cls-1" d="M58.81,58.09H71.07V61H55.74V12.81h3.07Z"/>
  <path class="cls-1" d="M83.53,15.68V12.81h34.94L84,61.48l-2.36-1.85,31.17-43.95Z"/>
  <path class="cls-2" d="M151.24,15.68v17.5h15.9v2.87h-15.9V61h-3.07V12.81h19.42v2.87Z"/>
  <path class="cls-2" d="M187.26,61h-3.07V12.81h3.07Z"/>
  <path class="cls-2" d="M248.77,62.57l-40.43-43V61h-3.07V12.17L245.7,54.84v-42h3.07Z"/>
  <path class="cls-1" d="M269.85,58.09h12.26V61H266.78V12.81h3.07Z"/>
  <path class="cls-1" d="M300.06,45.13,293.61,61h-3.13l20.18-49.76L330.78,61h-3.13L321.2,45.13ZM310.66,19l-9.45,23.25h18.84Z"/>
  <path class="cls-1" d="M387.44,62.57,347,19.58V61h-3.07V12.17l40.43,42.67v-42h3.07Z"/>
  <path class="cls-1" d="M405.45,12.81h8.69c7,0,12.58,1.15,17.88,6.07A24.42,24.42,0,0,1,439.69,37a24.24,24.24,0,0,1-7.41,17.63c-5.3,5.11-11,6.39-18.14,6.39h-8.69Zm8.62,45.29c6.32,0,11.56-1.28,16.16-5.81a21.77,21.77,0,0,0-.58-31.36c-4.6-4.15-9.58-5.24-15.58-5.24h-5.56V58.09Z"/>
</svg>