<svg xmlns="http://www.w3.org/2000/svg" viewBox="0 0 139.66 18.83"><defs><style>.a{fill:#a02d32;}</style></defs><path d="M22.75,15a16,16,0,0,1,4.24.51,4.16,4.16,0,0,0,2.92,0,28.39,28.39,0,0,1,5.4-.54C40,15,41,16.1,41,18.11V28.87c0,.65,0,1-1.24,1s-1.26-.32-1.26-1v-10c0-1.89-1-2.48-3.22-2.48a24.11,24.11,0,0,0-5.34.53c-.26.06-.62.12-.62.68V28.87c0,.65,0,1-1.24,1s-1.26-.32-1.26-1v-10c0-2.13-1-2.48-3.78-2.48a19.79,19.79,0,0,0-4.72.44c-.26.06-.62.12-.62.68V28.87c0,.65,0,1-1.24,1s-1.27-.32-1.27-1V17.11c0-.68.12-1.15,1.74-1.51A32.84,32.84,0,0,1,22.75,15Z" transform="translate(-15.22 -14.39)"/><path d="M57.47,24.74H47.06c-.35,0-.62.09-.62.65,0,3.1,3.16,3.16,6.17,3.16a41.4,41.4,0,0,0,4.45-.33c.68-.09,1-.15,1,.65s-.14.8-.79.91a31.55,31.55,0,0,1-4.6.33c-6.76,0-8.88-1.42-8.88-6.05,0-3.89,1.15-6.07,7.79-6.07,6.16,0,7.66,1.91,7.66,5.36C59.21,24,59.1,24.74,57.47,24.74ZM51.52,19.4c-3.93,0-5.08.62-5.08,3.39,0,.36.33.48.68.48h8.79c.35,0,.68-.12.68-.48C56.59,20,55.32,19.4,51.52,19.4Z" transform="translate(-15.22 -14.39)"/><path d="M74.25,17.69V15.36c0-.65,0-1,1.24-1s1.27.32,1.27,1V28.28c0,.68-.12,1.09-1.47,1.39a32.16,32.16,0,0,1-6,.47c-6.43,0-7.85-1.89-7.85-6.08S62.87,18,69.3,18a42.26,42.26,0,0,1,4.27.23C74,18.25,74.25,18.25,74.25,17.69Zm-4.86,11a33,33,0,0,0,4.24-.29c.24,0,.62,0,.62-.56V20.26c0-.53-.38-.56-.62-.59a34.5,34.5,0,0,0-4.24-.27c-3.9,0-5.31.62-5.31,4.66S65.49,28.72,69.39,28.72Z" transform="translate(-15.22 -14.39)"/><path d="M82.75,28.87c0,.65,0,1-1.23,1s-1.27-.32-1.27-1V19.22c0-.64,0-1,1.27-1s1.23.33,1.23,1Z" transform="translate(-15.22 -14.39)"/><path d="M93.57,18a35.67,35.67,0,0,1,4.78.32c.65.12.8.24.8.92s-.33.7-1,.64a41.09,41.09,0,0,0-4.45-.32c-4.28,0-5.55.8-5.55,4.51s1.27,4.52,5.55,4.52a39.87,39.87,0,0,0,4.45-.33c.65-.06,1-.15,1,.65s-.15.8-.8.91a34.61,34.61,0,0,1-4.78.33c-6.46,0-8-2-8-6.08S87.11,18,93.57,18Z" transform="translate(-15.22 -14.39)"/><path d="M104.15,28.87c0,.65,0,1-1.24,1s-1.27-.32-1.27-1V19.22c0-.64,0-1,1.27-1s1.24.33,1.24,1Z" transform="translate(-15.22 -14.39)"/><path d="M145,23.08l5.58-4.1a3.37,3.37,0,0,1,2.65-.74c1.48,0,1.1.47.59.82l-6.16,4.16a.68.68,0,0,0,0,1.18l6.87,4.52c.68.44.53.91-1.36.91-1.47,0-1.65-.17-2.21-.56l-5.9-4S143.38,24.18,145,23.08Z" transform="translate(-15.22 -14.39)"/><path d="M120.8,29.62a4.45,4.45,0,0,1,1.38-3,.49.49,0,0,0,.13-.32V21.14c0-2-1.32-3.15-5.51-3.15h-.3a41.34,41.34,0,0,0-7.19.7c-1.63.36-1.74.83-1.74,1.51v8.67c0,.65,0,1,1.26,1s1.24-.32,1.24-1V20.61c0-.56.36-.62.62-.68a29,29,0,0,1,5.61-.5c2.27,0,3.51.59,3.51,2.48v7c0,.56,0,.88.84.95C120.65,29.82,120.79,29.84,120.8,29.62Z" transform="translate(-15.22 -14.39)"/><path d="M126.86,25.59a.4.4,0,0,0,.21.26A4.41,4.41,0,0,1,129.5,29a.72.72,0,0,0,.44.58,14.81,14.81,0,0,0,4.68.58,32,32,0,0,0,6-.47c1.36-.3,1.48-.71,1.48-1.39V15.36c0-.65,0-1-1.27-1s-1.24.32-1.24,1v2.33c0,.56-.29.56-.68.53a42.26,42.26,0,0,0-4.27-.23c-6.43,0-7.85,1.88-7.85,6.07a12.12,12.12,0,0,0,.09,1.53m12.71,2.28c0,.53-.38.53-.62.56a33.06,33.06,0,0,1-4.25.29c-3.89,0-5.3-.62-5.3-4.66s1.41-4.66,5.3-4.66a34.56,34.56,0,0,1,4.25.27c.24,0,.62.06.62.59Z" transform="translate(-15.22 -14.39)"/><path class="a" d="M122.7,31.6l4.3-4.3c.22-.22,0-.34,0-.34a3.38,3.38,0,0,0-4.69,4.64S122.45,31.85,122.7,31.6Z" transform="translate(-15.22 -14.39)"/><path class="a" d="M127.68,28l-4.3,4.3c-.22.22,0,.34,0,.34a3.29,3.29,0,0,0,1.81.54,3.4,3.4,0,0,0,3.39-3.4,3.33,3.33,0,0,0-.51-1.77S127.93,27.79,127.68,28Z" transform="translate(-15.22 -14.39)"/></svg>