<svg width="1060px" height="201px" viewBox="0 0 1060 201" version="1.1" xmlns="http://www.w3.org/2000/svg" xmlns:xlink="http://www.w3.org/1999/xlink">
    <g id="Kanta-ilme" stroke="none" stroke-width="1" fill="none" fill-rule="evenodd">
        <g id="ODA-UI-ATOMS-Copy-3" transform="translate(-720.000000, -2626.000000)" fill="#0066A1">
            <path d="M755.544672,2725.79283 C755.544672,2761.02092 782.191699,2791.78348 818.800232,2791.78348 C855.159727,2791.78348 882.055792,2761.02092 882.055792,2725.79283 C882.055792,2690.56475 855.159727,2659.30602 818.800232,2659.30602 C782.191699,2659.30602 755.544672,2690.56475 755.544672,2725.79283 Z M1333.76305,2681.39704 L1350.00774,2664.61218 L1350.02004,2664.58723 L1366.74697,2664.58723 L1366.74697,2822.8497 L1337.47484,2822.8497 L1335.54481,2800.33268 C1323.64296,2816.41626 1301.76929,2826.06641 1282.14731,2826.06641 C1239.36498,2826.06641 1205.26778,2790.68253 1205.26778,2744.04013 C1205.26778,2698.04108 1239.36498,2662.33553 1284.39901,2662.33553 C1301.13129,2662.33553 1319.86381,2668.83632 1333.76305,2681.39704 Z M972.527236,2679.96254 C982.905053,2669.52365 997.627132,2662.33553 1013.74046,2662.33553 C1035.93581,2662.33553 1055.55778,2671.98568 1067.7813,2689.35595 C1080.96984,2671.664 1100.27014,2662.33553 1120.53546,2662.33553 C1158.17105,2662.33553 1185.83481,2688.39093 1185.83481,2732.13828 L1185.83481,2822.8497 L1152.05928,2822.8497 L1152.05928,2734.71165 C1152.05928,2711.55129 1142.08746,2694.50269 1117.31874,2694.50269 C1100.59181,2694.50269 1086.11659,2705.43953 1080.3265,2720.5581 L1080.3265,2822.8497 L1046.55097,2822.8497 L1046.55097,2734.71165 C1046.55097,2710.26461 1034.32745,2694.50269 1010.52374,2694.50269 C993.796815,2694.50269 978.999918,2704.79619 972.888156,2720.5581 L972.888156,2822.8497 L938.790957,2822.8497 L938.790957,2664.58723 L955.196213,2664.58723 L955.203827,2664.60045 L955.203827,2664.59448 L972.527236,2679.96254 Z M720,2726.3264 C720,2671.53071 762.782498,2626 819.117217,2626 C875.186206,2626 917.968704,2671.53071 917.968704,2726.3264 C917.968704,2781.12208 875.186206,2826.38809 819.117217,2826.38809 C762.782498,2826.38809 720,2781.12208 720,2726.3264 Z M1239.68665,2744.04013 C1239.68665,2772.34724 1258.98695,2794.22092 1286.00737,2794.22092 C1313.34947,2794.22092 1332.64977,2772.34724 1332.64977,2742.43178 C1332.64977,2716.0547 1313.34947,2694.18102 1286.00737,2694.18102 C1259.30862,2694.18102 1239.68665,2716.0547 1239.68665,2744.04013 Z M1387.11357,2744.04013 C1387.11357,2699.0061 1418.63739,2662.33553 1466.88814,2662.33553 C1514.17388,2662.33553 1546.66272,2699.0061 1546.66272,2744.04013 C1546.66272,2789.39584 1514.17388,2826.06641 1466.88814,2826.06641 C1419.60241,2826.06641 1387.11357,2789.39584 1387.11357,2744.04013 Z M1421.53244,2744.04013 C1421.53244,2771.7039 1439.54605,2793.57757 1466.88814,2793.57757 C1494.23024,2793.57757 1512.24385,2771.7039 1512.24385,2744.04013 C1512.24385,2716.69804 1494.23024,2694.50269 1466.88814,2694.50269 C1439.54605,2694.50269 1421.53244,2716.69804 1421.53244,2744.04013 Z M1600.46749,2629.02289 L1600.46749,2822.8497 L1566.37029,2822.8497 L1566.37029,2629.02289 L1600.46749,2629.02289 Z M1620.17505,2744.04013 C1620.17505,2699.0061 1651.69888,2662.33553 1699.94963,2662.33553 C1747.23537,2662.33553 1779.72421,2699.0061 1779.72421,2744.04013 C1779.72421,2789.39584 1747.23537,2826.06641 1699.94963,2826.06641 C1652.66389,2826.06641 1620.17505,2789.39584 1620.17505,2744.04013 Z M1654.59392,2744.04013 C1654.59392,2771.7039 1672.60754,2793.57757 1699.94963,2793.57757 C1727.29173,2793.57757 1745.30534,2771.7039 1745.30534,2744.04013 C1745.30534,2716.69804 1727.29173,2694.50269 1699.94963,2694.50269 C1672.60754,2694.50269 1654.59392,2716.69804 1654.59392,2744.04013 Z" id="Omaolo"></path>
        </g>
    </g>
</svg>
