<svg viewBox="0 0 119 12" fill="none" xmlns="http://www.w3.org/2000/svg">
<path fill-rule="evenodd" clip-rule="evenodd" d="M0 0.128906H14.9014V3.04839H9.4063V11.8699H5.49556V3.04839H0L0 0.128906Z" fill="#2C3A42"/>
<path fill-rule="evenodd" clip-rule="evenodd" d="M20.5216 5.90253H26.9861C28.0428 5.90253 28.4306 5.51327 28.4306 4.66963V4.2813C28.4306 3.24256 27.8665 3.04839 26.6338 3.04839H20.5216V5.90253ZM16.6113 0.128906H28.4129C31.4247 0.128906 32.2351 1.5072 32.2351 3.61572V4.36158C32.2351 5.93544 31.8478 6.85889 30.0504 7.24862V7.28083C31.2132 7.47546 32.1823 7.94641 32.1823 9.87569V11.8699H28.2721V10.4596C28.2721 9.22715 27.8845 8.82108 26.6685 8.82108H20.5216V11.8699H16.6113V0.128906Z" fill="#2C3A42"/>
<path fill-rule="evenodd" clip-rule="evenodd" d="M35.0898 11.8701H38.9996V0.128906H35.0898V11.8701Z" fill="#2C3A42"/>
<path fill-rule="evenodd" clip-rule="evenodd" d="M41.8535 0.128906H55.1698V2.95084H45.7643V5.14081H54.7297V7.86473H45.7643V11.8699H41.8535V0.128906Z" fill="#2C3A42"/>
<path fill-rule="evenodd" clip-rule="evenodd" d="M61.2673 6.63197C61.2673 8.33489 61.6548 8.9839 63.5042 8.9839H68.5064C70.3567 8.9839 70.7433 8.33489 70.7433 6.63197V5.36756C70.7433 3.90805 70.3567 3.0161 68.2961 3.0161H63.7157C61.6548 3.0161 61.2673 3.90805 61.2673 5.36756V6.63197ZM57.252 4.24854C57.252 0.810502 59.3476 0 62.8708 0H69.1408C72.6637 0 74.7598 0.810502 74.7598 4.24854V7.75099C74.7598 11.1895 72.6637 12 69.1408 12H62.8708C59.3476 12 57.252 11.1895 57.252 7.75099V4.24854Z" fill="#2C3A42"/>
<path fill-rule="evenodd" clip-rule="evenodd" d="M81.0321 5.90253H87.4959C88.5535 5.90253 88.9399 5.51327 88.9399 4.66963V4.2813C88.9399 3.24256 88.3763 3.04839 87.144 3.04839H81.0321V5.90253ZM77.1211 0.128906H88.9224C91.9355 0.128906 92.7449 1.5072 92.7449 3.61572V4.36158C92.7449 5.93544 92.3576 6.85889 90.5612 7.24862V7.28083C91.7237 7.47546 92.6929 7.94641 92.6929 9.87569V11.8699H88.7816V10.4596C88.7816 9.22715 88.3943 8.82108 87.179 8.82108H81.0321V11.8699H77.1211V0.128906Z" fill="#2C3A42"/>
<path fill-rule="evenodd" clip-rule="evenodd" d="M95.3887 0.128906H99.2977V4.44302H101.131L106.062 0.128906H111.382L104.477 5.87009L112.192 11.8699H106.661L101.025 7.36251H99.2977V11.8699H95.3887V0.128906Z" fill="#2C3A42"/>
<path fill-rule="evenodd" clip-rule="evenodd" d="M114.836 11.8703H118.535V8.56201H114.836V11.8703Z" fill="#FF6600"/>
</svg>
