<svg
  xmlns="http://www.w3.org/2000/svg" viewBox="68.96 55.62 450.5 450.5">
  <linearGradient id="a" x1="0" y1="0" x2="0" y2="1">
    <stop offset="0" stop-color="#50adff"/>
    <stop offset="1" stop-color="#7877fc"/>
  </linearGradient>
  <path fill="url(#a)" d="M473.09 122.97c0 22.69-10.19 42.85-25.72 55.08L296.61 312.69c-2.8 2.4-6.44-1.47-4.42-4.7l55.3-110.72c1.55-3.1-.46-6.91-3.64-6.91H129.36c-33.22 0-60.4-30.32-60.4-67.37 0-37.06 27.18-67.37 60.4-67.37h283.33c33.22-.02 60.4 30.3 60.4 67.35zM129.36 506.05h283.33c33.22 0 60.4-30.32 60.4-67.37 0-37.06-27.18-67.37-60.4-67.37H198.2c-3.18 0-5.19-3.81-3.64-6.91l55.3-110.72c2.02-3.23-1.62-7.1-4.42-4.7L94.68 383.6c-15.53 12.22-25.72 32.39-25.72 55.08 0 37.05 27.18 67.37 60.4 67.37z"/>
</svg>
